G04 #@! TF.GenerationSoftware,KiCad,Pcbnew,7.0.10-7.0.10~ubuntu22.04.1*
G04 #@! TF.CreationDate,2024-01-16T23:48:01+08:00*
G04 #@! TF.ProjectId,EL_oscillator,454c5f6f-7363-4696-9c6c-61746f722e6b,rev?*
G04 #@! TF.SameCoordinates,Original*
G04 #@! TF.FileFunction,Legend,Top*
G04 #@! TF.FilePolarity,Positive*
%FSLAX46Y46*%
G04 Gerber Fmt 4.6, Leading zero omitted, Abs format (unit mm)*
G04 Created by KiCad (PCBNEW 7.0.10-7.0.10~ubuntu22.04.1) date 2024-01-16 23:48:01*
%MOMM*%
%LPD*%
G01*
G04 APERTURE LIST*
G04 Aperture macros list*
%AMRoundRect*
0 Rectangle with rounded corners*
0 $1 Rounding radius*
0 $2 $3 $4 $5 $6 $7 $8 $9 X,Y pos of 4 corners*
0 Add a 4 corners polygon primitive as box body*
4,1,4,$2,$3,$4,$5,$6,$7,$8,$9,$2,$3,0*
0 Add four circle primitives for the rounded corners*
1,1,$1+$1,$2,$3*
1,1,$1+$1,$4,$5*
1,1,$1+$1,$6,$7*
1,1,$1+$1,$8,$9*
0 Add four rect primitives between the rounded corners*
20,1,$1+$1,$2,$3,$4,$5,0*
20,1,$1+$1,$4,$5,$6,$7,0*
20,1,$1+$1,$6,$7,$8,$9,0*
20,1,$1+$1,$8,$9,$2,$3,0*%
G04 Aperture macros list end*
%ADD10C,0.150000*%
%ADD11C,0.120000*%
%ADD12RoundRect,0.237500X-0.250000X-0.237500X0.250000X-0.237500X0.250000X0.237500X-0.250000X0.237500X0*%
%ADD13RoundRect,0.237500X-0.237500X0.287500X-0.237500X-0.287500X0.237500X-0.287500X0.237500X0.287500X0*%
%ADD14R,1.700000X1.700000*%
%ADD15O,1.700000X1.700000*%
%ADD16RoundRect,0.150000X0.587500X0.150000X-0.587500X0.150000X-0.587500X-0.150000X0.587500X-0.150000X0*%
%ADD17R,1.600000X1.600000*%
%ADD18C,1.600000*%
%ADD19R,3.000000X3.000000*%
%ADD20C,3.000000*%
%ADD21RoundRect,0.237500X-0.237500X0.250000X-0.237500X-0.250000X0.237500X-0.250000X0.237500X0.250000X0*%
%ADD22RoundRect,0.237500X0.250000X0.237500X-0.250000X0.237500X-0.250000X-0.237500X0.250000X-0.237500X0*%
%ADD23RoundRect,0.150000X-0.725000X-0.150000X0.725000X-0.150000X0.725000X0.150000X-0.725000X0.150000X0*%
G04 APERTURE END LIST*
D10*
X114373667Y-122828015D02*
X114508354Y-122693328D01*
X114508354Y-122693328D02*
X114609369Y-122659656D01*
X114609369Y-122659656D02*
X114744056Y-122659656D01*
X114744056Y-122659656D02*
X114912415Y-122760671D01*
X114912415Y-122760671D02*
X115148117Y-122996374D01*
X115148117Y-122996374D02*
X115249132Y-123164733D01*
X115249132Y-123164733D02*
X115249132Y-123299420D01*
X115249132Y-123299420D02*
X115215461Y-123400435D01*
X115215461Y-123400435D02*
X115080774Y-123535122D01*
X115080774Y-123535122D02*
X114979758Y-123568794D01*
X114979758Y-123568794D02*
X114845071Y-123568794D01*
X114845071Y-123568794D02*
X114676713Y-123467778D01*
X114676713Y-123467778D02*
X114441010Y-123232076D01*
X114441010Y-123232076D02*
X114339995Y-123063717D01*
X114339995Y-123063717D02*
X114339995Y-122929030D01*
X114339995Y-122929030D02*
X114373667Y-122828015D01*
X114979758Y-122221924D02*
X115552178Y-122794343D01*
X115552178Y-122794343D02*
X115653193Y-122828015D01*
X115653193Y-122828015D02*
X115720537Y-122828015D01*
X115720537Y-122828015D02*
X115821552Y-122794343D01*
X115821552Y-122794343D02*
X115956239Y-122659656D01*
X115956239Y-122659656D02*
X115989911Y-122558641D01*
X115989911Y-122558641D02*
X115989911Y-122491298D01*
X115989911Y-122491298D02*
X115956239Y-122390282D01*
X115956239Y-122390282D02*
X115383819Y-121817862D01*
X115619522Y-121582160D02*
X116023583Y-121178099D01*
X116528659Y-122087237D02*
X115821552Y-121380130D01*
X117336781Y-121279114D02*
X116932720Y-121683175D01*
X117134750Y-121481145D02*
X116427644Y-120774038D01*
X116427644Y-120774038D02*
X116461315Y-120942397D01*
X116461315Y-120942397D02*
X116461315Y-121077084D01*
X116461315Y-121077084D02*
X116427644Y-121178099D01*
X112446087Y-123639809D02*
X111738980Y-122932702D01*
X112782804Y-123303092D02*
X112075697Y-122595985D01*
X112075697Y-122595985D02*
X113186865Y-122899031D01*
X113186865Y-122899031D02*
X112479758Y-122191924D01*
X112850147Y-121956222D02*
X112850147Y-121888878D01*
X112850147Y-121888878D02*
X112883819Y-121787863D01*
X112883819Y-121787863D02*
X113052178Y-121619504D01*
X113052178Y-121619504D02*
X113153193Y-121585832D01*
X113153193Y-121585832D02*
X113220536Y-121585832D01*
X113220536Y-121585832D02*
X113321552Y-121619504D01*
X113321552Y-121619504D02*
X113388895Y-121686848D01*
X113388895Y-121686848D02*
X113456239Y-121821535D01*
X113456239Y-121821535D02*
X113456239Y-122629657D01*
X113456239Y-122629657D02*
X113893971Y-122191924D01*
X104593041Y-122625984D02*
X104492026Y-122659656D01*
X104492026Y-122659656D02*
X104391010Y-122760671D01*
X104391010Y-122760671D02*
X104323667Y-122895358D01*
X104323667Y-122895358D02*
X104323667Y-123030046D01*
X104323667Y-123030046D02*
X104357339Y-123131061D01*
X104357339Y-123131061D02*
X104458354Y-123299420D01*
X104458354Y-123299420D02*
X104559369Y-123400435D01*
X104559369Y-123400435D02*
X104727728Y-123501450D01*
X104727728Y-123501450D02*
X104828743Y-123535122D01*
X104828743Y-123535122D02*
X104963430Y-123535122D01*
X104963430Y-123535122D02*
X105098117Y-123467778D01*
X105098117Y-123467778D02*
X105165461Y-123400435D01*
X105165461Y-123400435D02*
X105232804Y-123265748D01*
X105232804Y-123265748D02*
X105232804Y-123198404D01*
X105232804Y-123198404D02*
X104997102Y-122962702D01*
X104997102Y-122962702D02*
X104862415Y-123097389D01*
X105603193Y-122962702D02*
X104896087Y-122255595D01*
X104896087Y-122255595D02*
X106007254Y-122558641D01*
X106007254Y-122558641D02*
X105300148Y-121851534D01*
X106343972Y-122221924D02*
X105636865Y-121514817D01*
X105636865Y-121514817D02*
X105805224Y-121346458D01*
X105805224Y-121346458D02*
X105939911Y-121279114D01*
X105939911Y-121279114D02*
X106074598Y-121279114D01*
X106074598Y-121279114D02*
X106175613Y-121312786D01*
X106175613Y-121312786D02*
X106343972Y-121413801D01*
X106343972Y-121413801D02*
X106444987Y-121514817D01*
X106444987Y-121514817D02*
X106546002Y-121683175D01*
X106546002Y-121683175D02*
X106579674Y-121784191D01*
X106579674Y-121784191D02*
X106579674Y-121918878D01*
X106579674Y-121918878D02*
X106512331Y-122053565D01*
X106512331Y-122053565D02*
X106343972Y-122221924D01*
X109896087Y-123669809D02*
X109188980Y-122962702D01*
X110232804Y-123333092D02*
X109525697Y-122625985D01*
X109525697Y-122625985D02*
X110636865Y-122929031D01*
X110636865Y-122929031D02*
X109929758Y-122221924D01*
X111343971Y-122221924D02*
X110939910Y-122625985D01*
X111141941Y-122423954D02*
X110434834Y-121716848D01*
X110434834Y-121716848D02*
X110468506Y-121885206D01*
X110468506Y-121885206D02*
X110468506Y-122019893D01*
X110468506Y-122019893D02*
X110434834Y-122120909D01*
X106587965Y-123063717D02*
X107530774Y-123535122D01*
X107530774Y-123535122D02*
X107059369Y-122592313D01*
X108002178Y-123063717D02*
X107295071Y-122356610D01*
X107295071Y-122356610D02*
X108035850Y-122625984D01*
X108035850Y-122625984D02*
X107766476Y-121885206D01*
X107766476Y-121885206D02*
X108473583Y-122592313D01*
X116973667Y-122828015D02*
X117108354Y-122693328D01*
X117108354Y-122693328D02*
X117209369Y-122659656D01*
X117209369Y-122659656D02*
X117344056Y-122659656D01*
X117344056Y-122659656D02*
X117512415Y-122760671D01*
X117512415Y-122760671D02*
X117748117Y-122996374D01*
X117748117Y-122996374D02*
X117849132Y-123164733D01*
X117849132Y-123164733D02*
X117849132Y-123299420D01*
X117849132Y-123299420D02*
X117815461Y-123400435D01*
X117815461Y-123400435D02*
X117680774Y-123535122D01*
X117680774Y-123535122D02*
X117579758Y-123568794D01*
X117579758Y-123568794D02*
X117445071Y-123568794D01*
X117445071Y-123568794D02*
X117276713Y-123467778D01*
X117276713Y-123467778D02*
X117041010Y-123232076D01*
X117041010Y-123232076D02*
X116939995Y-123063717D01*
X116939995Y-123063717D02*
X116939995Y-122929030D01*
X116939995Y-122929030D02*
X116973667Y-122828015D01*
X117579758Y-122221924D02*
X118152178Y-122794343D01*
X118152178Y-122794343D02*
X118253193Y-122828015D01*
X118253193Y-122828015D02*
X118320537Y-122828015D01*
X118320537Y-122828015D02*
X118421552Y-122794343D01*
X118421552Y-122794343D02*
X118556239Y-122659656D01*
X118556239Y-122659656D02*
X118589911Y-122558641D01*
X118589911Y-122558641D02*
X118589911Y-122491298D01*
X118589911Y-122491298D02*
X118556239Y-122390282D01*
X118556239Y-122390282D02*
X117983819Y-121817862D01*
X118219522Y-121582160D02*
X118623583Y-121178099D01*
X119128659Y-122087237D02*
X118421552Y-121380130D01*
X118892957Y-121043412D02*
X118892957Y-120976069D01*
X118892957Y-120976069D02*
X118926628Y-120875053D01*
X118926628Y-120875053D02*
X119094987Y-120706695D01*
X119094987Y-120706695D02*
X119196002Y-120673023D01*
X119196002Y-120673023D02*
X119263346Y-120673023D01*
X119263346Y-120673023D02*
X119364361Y-120706695D01*
X119364361Y-120706695D02*
X119431705Y-120774038D01*
X119431705Y-120774038D02*
X119499048Y-120908725D01*
X119499048Y-120908725D02*
X119499048Y-121716847D01*
X119499048Y-121716847D02*
X119936781Y-121279114D01*
X101833333Y-114704819D02*
X101500000Y-114228628D01*
X101261905Y-114704819D02*
X101261905Y-113704819D01*
X101261905Y-113704819D02*
X101642857Y-113704819D01*
X101642857Y-113704819D02*
X101738095Y-113752438D01*
X101738095Y-113752438D02*
X101785714Y-113800057D01*
X101785714Y-113800057D02*
X101833333Y-113895295D01*
X101833333Y-113895295D02*
X101833333Y-114038152D01*
X101833333Y-114038152D02*
X101785714Y-114133390D01*
X101785714Y-114133390D02*
X101738095Y-114181009D01*
X101738095Y-114181009D02*
X101642857Y-114228628D01*
X101642857Y-114228628D02*
X101261905Y-114228628D01*
X102785714Y-114704819D02*
X102214286Y-114704819D01*
X102500000Y-114704819D02*
X102500000Y-113704819D01*
X102500000Y-113704819D02*
X102404762Y-113847676D01*
X102404762Y-113847676D02*
X102309524Y-113942914D01*
X102309524Y-113942914D02*
X102214286Y-113990533D01*
X119511905Y-111454819D02*
X119511905Y-110454819D01*
X119511905Y-110454819D02*
X119750000Y-110454819D01*
X119750000Y-110454819D02*
X119892857Y-110502438D01*
X119892857Y-110502438D02*
X119988095Y-110597676D01*
X119988095Y-110597676D02*
X120035714Y-110692914D01*
X120035714Y-110692914D02*
X120083333Y-110883390D01*
X120083333Y-110883390D02*
X120083333Y-111026247D01*
X120083333Y-111026247D02*
X120035714Y-111216723D01*
X120035714Y-111216723D02*
X119988095Y-111311961D01*
X119988095Y-111311961D02*
X119892857Y-111407200D01*
X119892857Y-111407200D02*
X119750000Y-111454819D01*
X119750000Y-111454819D02*
X119511905Y-111454819D01*
X120464286Y-110550057D02*
X120511905Y-110502438D01*
X120511905Y-110502438D02*
X120607143Y-110454819D01*
X120607143Y-110454819D02*
X120845238Y-110454819D01*
X120845238Y-110454819D02*
X120940476Y-110502438D01*
X120940476Y-110502438D02*
X120988095Y-110550057D01*
X120988095Y-110550057D02*
X121035714Y-110645295D01*
X121035714Y-110645295D02*
X121035714Y-110740533D01*
X121035714Y-110740533D02*
X120988095Y-110883390D01*
X120988095Y-110883390D02*
X120416667Y-111454819D01*
X120416667Y-111454819D02*
X121035714Y-111454819D01*
X119833333Y-116204819D02*
X119500000Y-115728628D01*
X119261905Y-116204819D02*
X119261905Y-115204819D01*
X119261905Y-115204819D02*
X119642857Y-115204819D01*
X119642857Y-115204819D02*
X119738095Y-115252438D01*
X119738095Y-115252438D02*
X119785714Y-115300057D01*
X119785714Y-115300057D02*
X119833333Y-115395295D01*
X119833333Y-115395295D02*
X119833333Y-115538152D01*
X119833333Y-115538152D02*
X119785714Y-115633390D01*
X119785714Y-115633390D02*
X119738095Y-115681009D01*
X119738095Y-115681009D02*
X119642857Y-115728628D01*
X119642857Y-115728628D02*
X119261905Y-115728628D01*
X120690476Y-115538152D02*
X120690476Y-116204819D01*
X120452381Y-115157200D02*
X120214286Y-115871485D01*
X120214286Y-115871485D02*
X120833333Y-115871485D01*
X101654761Y-119550057D02*
X101559523Y-119502438D01*
X101559523Y-119502438D02*
X101464285Y-119407200D01*
X101464285Y-119407200D02*
X101321428Y-119264342D01*
X101321428Y-119264342D02*
X101226190Y-119216723D01*
X101226190Y-119216723D02*
X101130952Y-119216723D01*
X101178571Y-119454819D02*
X101083333Y-119407200D01*
X101083333Y-119407200D02*
X100988095Y-119311961D01*
X100988095Y-119311961D02*
X100940476Y-119121485D01*
X100940476Y-119121485D02*
X100940476Y-118788152D01*
X100940476Y-118788152D02*
X100988095Y-118597676D01*
X100988095Y-118597676D02*
X101083333Y-118502438D01*
X101083333Y-118502438D02*
X101178571Y-118454819D01*
X101178571Y-118454819D02*
X101369047Y-118454819D01*
X101369047Y-118454819D02*
X101464285Y-118502438D01*
X101464285Y-118502438D02*
X101559523Y-118597676D01*
X101559523Y-118597676D02*
X101607142Y-118788152D01*
X101607142Y-118788152D02*
X101607142Y-119121485D01*
X101607142Y-119121485D02*
X101559523Y-119311961D01*
X101559523Y-119311961D02*
X101464285Y-119407200D01*
X101464285Y-119407200D02*
X101369047Y-119454819D01*
X101369047Y-119454819D02*
X101178571Y-119454819D01*
X102559523Y-119454819D02*
X101988095Y-119454819D01*
X102273809Y-119454819D02*
X102273809Y-118454819D01*
X102273809Y-118454819D02*
X102178571Y-118597676D01*
X102178571Y-118597676D02*
X102083333Y-118692914D01*
X102083333Y-118692914D02*
X101988095Y-118740533D01*
X107583333Y-114359580D02*
X107535714Y-114407200D01*
X107535714Y-114407200D02*
X107392857Y-114454819D01*
X107392857Y-114454819D02*
X107297619Y-114454819D01*
X107297619Y-114454819D02*
X107154762Y-114407200D01*
X107154762Y-114407200D02*
X107059524Y-114311961D01*
X107059524Y-114311961D02*
X107011905Y-114216723D01*
X107011905Y-114216723D02*
X106964286Y-114026247D01*
X106964286Y-114026247D02*
X106964286Y-113883390D01*
X106964286Y-113883390D02*
X107011905Y-113692914D01*
X107011905Y-113692914D02*
X107059524Y-113597676D01*
X107059524Y-113597676D02*
X107154762Y-113502438D01*
X107154762Y-113502438D02*
X107297619Y-113454819D01*
X107297619Y-113454819D02*
X107392857Y-113454819D01*
X107392857Y-113454819D02*
X107535714Y-113502438D01*
X107535714Y-113502438D02*
X107583333Y-113550057D01*
X108535714Y-114454819D02*
X107964286Y-114454819D01*
X108250000Y-114454819D02*
X108250000Y-113454819D01*
X108250000Y-113454819D02*
X108154762Y-113597676D01*
X108154762Y-113597676D02*
X108059524Y-113692914D01*
X108059524Y-113692914D02*
X107964286Y-113740533D01*
X114333333Y-110454819D02*
X114000000Y-109978628D01*
X113761905Y-110454819D02*
X113761905Y-109454819D01*
X113761905Y-109454819D02*
X114142857Y-109454819D01*
X114142857Y-109454819D02*
X114238095Y-109502438D01*
X114238095Y-109502438D02*
X114285714Y-109550057D01*
X114285714Y-109550057D02*
X114333333Y-109645295D01*
X114333333Y-109645295D02*
X114333333Y-109788152D01*
X114333333Y-109788152D02*
X114285714Y-109883390D01*
X114285714Y-109883390D02*
X114238095Y-109931009D01*
X114238095Y-109931009D02*
X114142857Y-109978628D01*
X114142857Y-109978628D02*
X113761905Y-109978628D01*
X115190476Y-109454819D02*
X115000000Y-109454819D01*
X115000000Y-109454819D02*
X114904762Y-109502438D01*
X114904762Y-109502438D02*
X114857143Y-109550057D01*
X114857143Y-109550057D02*
X114761905Y-109692914D01*
X114761905Y-109692914D02*
X114714286Y-109883390D01*
X114714286Y-109883390D02*
X114714286Y-110264342D01*
X114714286Y-110264342D02*
X114761905Y-110359580D01*
X114761905Y-110359580D02*
X114809524Y-110407200D01*
X114809524Y-110407200D02*
X114904762Y-110454819D01*
X114904762Y-110454819D02*
X115095238Y-110454819D01*
X115095238Y-110454819D02*
X115190476Y-110407200D01*
X115190476Y-110407200D02*
X115238095Y-110359580D01*
X115238095Y-110359580D02*
X115285714Y-110264342D01*
X115285714Y-110264342D02*
X115285714Y-110026247D01*
X115285714Y-110026247D02*
X115238095Y-109931009D01*
X115238095Y-109931009D02*
X115190476Y-109883390D01*
X115190476Y-109883390D02*
X115095238Y-109835771D01*
X115095238Y-109835771D02*
X114904762Y-109835771D01*
X114904762Y-109835771D02*
X114809524Y-109883390D01*
X114809524Y-109883390D02*
X114761905Y-109931009D01*
X114761905Y-109931009D02*
X114714286Y-110026247D01*
X100761905Y-111454819D02*
X100761905Y-110454819D01*
X100761905Y-110454819D02*
X101000000Y-110454819D01*
X101000000Y-110454819D02*
X101142857Y-110502438D01*
X101142857Y-110502438D02*
X101238095Y-110597676D01*
X101238095Y-110597676D02*
X101285714Y-110692914D01*
X101285714Y-110692914D02*
X101333333Y-110883390D01*
X101333333Y-110883390D02*
X101333333Y-111026247D01*
X101333333Y-111026247D02*
X101285714Y-111216723D01*
X101285714Y-111216723D02*
X101238095Y-111311961D01*
X101238095Y-111311961D02*
X101142857Y-111407200D01*
X101142857Y-111407200D02*
X101000000Y-111454819D01*
X101000000Y-111454819D02*
X100761905Y-111454819D01*
X102285714Y-111454819D02*
X101714286Y-111454819D01*
X102000000Y-111454819D02*
X102000000Y-110454819D01*
X102000000Y-110454819D02*
X101904762Y-110597676D01*
X101904762Y-110597676D02*
X101809524Y-110692914D01*
X101809524Y-110692914D02*
X101714286Y-110740533D01*
X120154761Y-119550057D02*
X120059523Y-119502438D01*
X120059523Y-119502438D02*
X119964285Y-119407200D01*
X119964285Y-119407200D02*
X119821428Y-119264342D01*
X119821428Y-119264342D02*
X119726190Y-119216723D01*
X119726190Y-119216723D02*
X119630952Y-119216723D01*
X119678571Y-119454819D02*
X119583333Y-119407200D01*
X119583333Y-119407200D02*
X119488095Y-119311961D01*
X119488095Y-119311961D02*
X119440476Y-119121485D01*
X119440476Y-119121485D02*
X119440476Y-118788152D01*
X119440476Y-118788152D02*
X119488095Y-118597676D01*
X119488095Y-118597676D02*
X119583333Y-118502438D01*
X119583333Y-118502438D02*
X119678571Y-118454819D01*
X119678571Y-118454819D02*
X119869047Y-118454819D01*
X119869047Y-118454819D02*
X119964285Y-118502438D01*
X119964285Y-118502438D02*
X120059523Y-118597676D01*
X120059523Y-118597676D02*
X120107142Y-118788152D01*
X120107142Y-118788152D02*
X120107142Y-119121485D01*
X120107142Y-119121485D02*
X120059523Y-119311961D01*
X120059523Y-119311961D02*
X119964285Y-119407200D01*
X119964285Y-119407200D02*
X119869047Y-119454819D01*
X119869047Y-119454819D02*
X119678571Y-119454819D01*
X120488095Y-118550057D02*
X120535714Y-118502438D01*
X120535714Y-118502438D02*
X120630952Y-118454819D01*
X120630952Y-118454819D02*
X120869047Y-118454819D01*
X120869047Y-118454819D02*
X120964285Y-118502438D01*
X120964285Y-118502438D02*
X121011904Y-118550057D01*
X121011904Y-118550057D02*
X121059523Y-118645295D01*
X121059523Y-118645295D02*
X121059523Y-118740533D01*
X121059523Y-118740533D02*
X121011904Y-118883390D01*
X121011904Y-118883390D02*
X120440476Y-119454819D01*
X120440476Y-119454819D02*
X121059523Y-119454819D01*
X101833333Y-116454819D02*
X101500000Y-115978628D01*
X101261905Y-116454819D02*
X101261905Y-115454819D01*
X101261905Y-115454819D02*
X101642857Y-115454819D01*
X101642857Y-115454819D02*
X101738095Y-115502438D01*
X101738095Y-115502438D02*
X101785714Y-115550057D01*
X101785714Y-115550057D02*
X101833333Y-115645295D01*
X101833333Y-115645295D02*
X101833333Y-115788152D01*
X101833333Y-115788152D02*
X101785714Y-115883390D01*
X101785714Y-115883390D02*
X101738095Y-115931009D01*
X101738095Y-115931009D02*
X101642857Y-115978628D01*
X101642857Y-115978628D02*
X101261905Y-115978628D01*
X102166667Y-115454819D02*
X102785714Y-115454819D01*
X102785714Y-115454819D02*
X102452381Y-115835771D01*
X102452381Y-115835771D02*
X102595238Y-115835771D01*
X102595238Y-115835771D02*
X102690476Y-115883390D01*
X102690476Y-115883390D02*
X102738095Y-115931009D01*
X102738095Y-115931009D02*
X102785714Y-116026247D01*
X102785714Y-116026247D02*
X102785714Y-116264342D01*
X102785714Y-116264342D02*
X102738095Y-116359580D01*
X102738095Y-116359580D02*
X102690476Y-116407200D01*
X102690476Y-116407200D02*
X102595238Y-116454819D01*
X102595238Y-116454819D02*
X102309524Y-116454819D01*
X102309524Y-116454819D02*
X102214286Y-116407200D01*
X102214286Y-116407200D02*
X102166667Y-116359580D01*
X113238095Y-114204819D02*
X113238095Y-115014342D01*
X113238095Y-115014342D02*
X113285714Y-115109580D01*
X113285714Y-115109580D02*
X113333333Y-115157200D01*
X113333333Y-115157200D02*
X113428571Y-115204819D01*
X113428571Y-115204819D02*
X113619047Y-115204819D01*
X113619047Y-115204819D02*
X113714285Y-115157200D01*
X113714285Y-115157200D02*
X113761904Y-115109580D01*
X113761904Y-115109580D02*
X113809523Y-115014342D01*
X113809523Y-115014342D02*
X113809523Y-114204819D01*
X114809523Y-115204819D02*
X114238095Y-115204819D01*
X114523809Y-115204819D02*
X114523809Y-114204819D01*
X114523809Y-114204819D02*
X114428571Y-114347676D01*
X114428571Y-114347676D02*
X114333333Y-114442914D01*
X114333333Y-114442914D02*
X114238095Y-114490533D01*
X119833333Y-114454819D02*
X119500000Y-113978628D01*
X119261905Y-114454819D02*
X119261905Y-113454819D01*
X119261905Y-113454819D02*
X119642857Y-113454819D01*
X119642857Y-113454819D02*
X119738095Y-113502438D01*
X119738095Y-113502438D02*
X119785714Y-113550057D01*
X119785714Y-113550057D02*
X119833333Y-113645295D01*
X119833333Y-113645295D02*
X119833333Y-113788152D01*
X119833333Y-113788152D02*
X119785714Y-113883390D01*
X119785714Y-113883390D02*
X119738095Y-113931009D01*
X119738095Y-113931009D02*
X119642857Y-113978628D01*
X119642857Y-113978628D02*
X119261905Y-113978628D01*
X120214286Y-113550057D02*
X120261905Y-113502438D01*
X120261905Y-113502438D02*
X120357143Y-113454819D01*
X120357143Y-113454819D02*
X120595238Y-113454819D01*
X120595238Y-113454819D02*
X120690476Y-113502438D01*
X120690476Y-113502438D02*
X120738095Y-113550057D01*
X120738095Y-113550057D02*
X120785714Y-113645295D01*
X120785714Y-113645295D02*
X120785714Y-113740533D01*
X120785714Y-113740533D02*
X120738095Y-113883390D01*
X120738095Y-113883390D02*
X120166667Y-114454819D01*
X120166667Y-114454819D02*
X120785714Y-114454819D01*
X107333333Y-110542319D02*
X107000000Y-110066128D01*
X106761905Y-110542319D02*
X106761905Y-109542319D01*
X106761905Y-109542319D02*
X107142857Y-109542319D01*
X107142857Y-109542319D02*
X107238095Y-109589938D01*
X107238095Y-109589938D02*
X107285714Y-109637557D01*
X107285714Y-109637557D02*
X107333333Y-109732795D01*
X107333333Y-109732795D02*
X107333333Y-109875652D01*
X107333333Y-109875652D02*
X107285714Y-109970890D01*
X107285714Y-109970890D02*
X107238095Y-110018509D01*
X107238095Y-110018509D02*
X107142857Y-110066128D01*
X107142857Y-110066128D02*
X106761905Y-110066128D01*
X108238095Y-109542319D02*
X107761905Y-109542319D01*
X107761905Y-109542319D02*
X107714286Y-110018509D01*
X107714286Y-110018509D02*
X107761905Y-109970890D01*
X107761905Y-109970890D02*
X107857143Y-109923271D01*
X107857143Y-109923271D02*
X108095238Y-109923271D01*
X108095238Y-109923271D02*
X108190476Y-109970890D01*
X108190476Y-109970890D02*
X108238095Y-110018509D01*
X108238095Y-110018509D02*
X108285714Y-110113747D01*
X108285714Y-110113747D02*
X108285714Y-110351842D01*
X108285714Y-110351842D02*
X108238095Y-110447080D01*
X108238095Y-110447080D02*
X108190476Y-110494700D01*
X108190476Y-110494700D02*
X108095238Y-110542319D01*
X108095238Y-110542319D02*
X107857143Y-110542319D01*
X107857143Y-110542319D02*
X107761905Y-110494700D01*
X107761905Y-110494700D02*
X107714286Y-110447080D01*
D11*
X104495276Y-113727500D02*
X105004724Y-113727500D01*
X104495276Y-114772500D02*
X105004724Y-114772500D01*
X119235000Y-109340000D02*
X117765000Y-109340000D01*
X117765000Y-109340000D02*
X117765000Y-111800000D01*
X119235000Y-111800000D02*
X119235000Y-109340000D01*
X103320000Y-126630000D02*
X103320000Y-125300000D01*
X104650000Y-126630000D02*
X103320000Y-126630000D01*
X105920000Y-126630000D02*
X118680000Y-126630000D01*
X105920000Y-126630000D02*
X105920000Y-123970000D01*
X118680000Y-126630000D02*
X118680000Y-123970000D01*
X105920000Y-123970000D02*
X118680000Y-123970000D01*
X116995276Y-115477500D02*
X117504724Y-115477500D01*
X116995276Y-116522500D02*
X117504724Y-116522500D01*
X104750000Y-120560000D02*
X106425000Y-120560000D01*
X104750000Y-120560000D02*
X104100000Y-120560000D01*
X104750000Y-117440000D02*
X105400000Y-117440000D01*
X104750000Y-117440000D02*
X104100000Y-117440000D01*
X113804775Y-113475000D02*
X113304775Y-113475000D01*
X113554775Y-113725000D02*
X113554775Y-113225000D01*
X111000000Y-114580000D02*
X111000000Y-113040000D01*
X111000000Y-110960000D02*
X111000000Y-109420000D01*
X110960000Y-114580000D02*
X110960000Y-113040000D01*
X110960000Y-110960000D02*
X110960000Y-109420000D01*
X110920000Y-114579000D02*
X110920000Y-113040000D01*
X110920000Y-110960000D02*
X110920000Y-109421000D01*
X110880000Y-114578000D02*
X110880000Y-113040000D01*
X110880000Y-110960000D02*
X110880000Y-109422000D01*
X110840000Y-114576000D02*
X110840000Y-113040000D01*
X110840000Y-110960000D02*
X110840000Y-109424000D01*
X110800000Y-114573000D02*
X110800000Y-113040000D01*
X110800000Y-110960000D02*
X110800000Y-109427000D01*
X110760000Y-114569000D02*
X110760000Y-113040000D01*
X110760000Y-110960000D02*
X110760000Y-109431000D01*
X110720000Y-114565000D02*
X110720000Y-113040000D01*
X110720000Y-110960000D02*
X110720000Y-109435000D01*
X110680000Y-114561000D02*
X110680000Y-113040000D01*
X110680000Y-110960000D02*
X110680000Y-109439000D01*
X110640000Y-114556000D02*
X110640000Y-113040000D01*
X110640000Y-110960000D02*
X110640000Y-109444000D01*
X110600000Y-114550000D02*
X110600000Y-113040000D01*
X110600000Y-110960000D02*
X110600000Y-109450000D01*
X110560000Y-114543000D02*
X110560000Y-113040000D01*
X110560000Y-110960000D02*
X110560000Y-109457000D01*
X110520000Y-114536000D02*
X110520000Y-113040000D01*
X110520000Y-110960000D02*
X110520000Y-109464000D01*
X110480000Y-114528000D02*
X110480000Y-113040000D01*
X110480000Y-110960000D02*
X110480000Y-109472000D01*
X110440000Y-114520000D02*
X110440000Y-113040000D01*
X110440000Y-110960000D02*
X110440000Y-109480000D01*
X110400000Y-114511000D02*
X110400000Y-113040000D01*
X110400000Y-110960000D02*
X110400000Y-109489000D01*
X110360000Y-114501000D02*
X110360000Y-113040000D01*
X110360000Y-110960000D02*
X110360000Y-109499000D01*
X110320000Y-114491000D02*
X110320000Y-113040000D01*
X110320000Y-110960000D02*
X110320000Y-109509000D01*
X110279000Y-114480000D02*
X110279000Y-113040000D01*
X110279000Y-110960000D02*
X110279000Y-109520000D01*
X110239000Y-114468000D02*
X110239000Y-113040000D01*
X110239000Y-110960000D02*
X110239000Y-109532000D01*
X110199000Y-114455000D02*
X110199000Y-113040000D01*
X110199000Y-110960000D02*
X110199000Y-109545000D01*
X110159000Y-114442000D02*
X110159000Y-113040000D01*
X110159000Y-110960000D02*
X110159000Y-109558000D01*
X110119000Y-114428000D02*
X110119000Y-113040000D01*
X110119000Y-110960000D02*
X110119000Y-109572000D01*
X110079000Y-114414000D02*
X110079000Y-113040000D01*
X110079000Y-110960000D02*
X110079000Y-109586000D01*
X110039000Y-114398000D02*
X110039000Y-113040000D01*
X110039000Y-110960000D02*
X110039000Y-109602000D01*
X109999000Y-114382000D02*
X109999000Y-113040000D01*
X109999000Y-110960000D02*
X109999000Y-109618000D01*
X109959000Y-114365000D02*
X109959000Y-113040000D01*
X109959000Y-110960000D02*
X109959000Y-109635000D01*
X109919000Y-114348000D02*
X109919000Y-113040000D01*
X109919000Y-110960000D02*
X109919000Y-109652000D01*
X109879000Y-114329000D02*
X109879000Y-113040000D01*
X109879000Y-110960000D02*
X109879000Y-109671000D01*
X109839000Y-114310000D02*
X109839000Y-113040000D01*
X109839000Y-110960000D02*
X109839000Y-109690000D01*
X109799000Y-114290000D02*
X109799000Y-113040000D01*
X109799000Y-110960000D02*
X109799000Y-109710000D01*
X109759000Y-114268000D02*
X109759000Y-113040000D01*
X109759000Y-110960000D02*
X109759000Y-109732000D01*
X109719000Y-114247000D02*
X109719000Y-113040000D01*
X109719000Y-110960000D02*
X109719000Y-109753000D01*
X109679000Y-114224000D02*
X109679000Y-113040000D01*
X109679000Y-110960000D02*
X109679000Y-109776000D01*
X109639000Y-114200000D02*
X109639000Y-113040000D01*
X109639000Y-110960000D02*
X109639000Y-109800000D01*
X109599000Y-114175000D02*
X109599000Y-113040000D01*
X109599000Y-110960000D02*
X109599000Y-109825000D01*
X109559000Y-114149000D02*
X109559000Y-113040000D01*
X109559000Y-110960000D02*
X109559000Y-109851000D01*
X109519000Y-114122000D02*
X109519000Y-113040000D01*
X109519000Y-110960000D02*
X109519000Y-109878000D01*
X109479000Y-114095000D02*
X109479000Y-113040000D01*
X109479000Y-110960000D02*
X109479000Y-109905000D01*
X109439000Y-114065000D02*
X109439000Y-113040000D01*
X109439000Y-110960000D02*
X109439000Y-109935000D01*
X109399000Y-114035000D02*
X109399000Y-113040000D01*
X109399000Y-110960000D02*
X109399000Y-109965000D01*
X109359000Y-114004000D02*
X109359000Y-113040000D01*
X109359000Y-110960000D02*
X109359000Y-109996000D01*
X109319000Y-113971000D02*
X109319000Y-113040000D01*
X109319000Y-110960000D02*
X109319000Y-110029000D01*
X109279000Y-113937000D02*
X109279000Y-113040000D01*
X109279000Y-110960000D02*
X109279000Y-110063000D01*
X109239000Y-113901000D02*
X109239000Y-113040000D01*
X109239000Y-110960000D02*
X109239000Y-110099000D01*
X109199000Y-113864000D02*
X109199000Y-113040000D01*
X109199000Y-110960000D02*
X109199000Y-110136000D01*
X109159000Y-113826000D02*
X109159000Y-113040000D01*
X109159000Y-110960000D02*
X109159000Y-110174000D01*
X109119000Y-113785000D02*
X109119000Y-113040000D01*
X109119000Y-110960000D02*
X109119000Y-110215000D01*
X109079000Y-113743000D02*
X109079000Y-113040000D01*
X109079000Y-110960000D02*
X109079000Y-110257000D01*
X109039000Y-113699000D02*
X109039000Y-113040000D01*
X109039000Y-110960000D02*
X109039000Y-110301000D01*
X108999000Y-113653000D02*
X108999000Y-113040000D01*
X108999000Y-110960000D02*
X108999000Y-110347000D01*
X108959000Y-113605000D02*
X108959000Y-110395000D01*
X108919000Y-113554000D02*
X108919000Y-110446000D01*
X108879000Y-113500000D02*
X108879000Y-110500000D01*
X108839000Y-113443000D02*
X108839000Y-110557000D01*
X108799000Y-113383000D02*
X108799000Y-110617000D01*
X108759000Y-113319000D02*
X108759000Y-110681000D01*
X108719000Y-113251000D02*
X108719000Y-110749000D01*
X108679000Y-113178000D02*
X108679000Y-110822000D01*
X108639000Y-113098000D02*
X108639000Y-110902000D01*
X108599000Y-113011000D02*
X108599000Y-110989000D01*
X108559000Y-112915000D02*
X108559000Y-111085000D01*
X108519000Y-112805000D02*
X108519000Y-111195000D01*
X108479000Y-112677000D02*
X108479000Y-111323000D01*
X108439000Y-112518000D02*
X108439000Y-111482000D01*
X108399000Y-112284000D02*
X108399000Y-111716000D01*
X113620000Y-112000000D02*
G75*
G03*
X108380000Y-112000000I-2620000J0D01*
G01*
X108380000Y-112000000D02*
G75*
G03*
X113620000Y-112000000I2620000J0D01*
G01*
X100840000Y-100490000D02*
X100840000Y-108110000D01*
X100840000Y-100490000D02*
X121160000Y-100490000D01*
X100840000Y-108110000D02*
X121160000Y-108110000D01*
X121160000Y-106840000D02*
X100840000Y-106840000D01*
X121160000Y-108110000D02*
X121160000Y-100490000D01*
X116772500Y-110745276D02*
X116772500Y-111254724D01*
X115727500Y-110745276D02*
X115727500Y-111254724D01*
X104235000Y-109340000D02*
X102765000Y-109340000D01*
X102765000Y-109340000D02*
X102765000Y-111800000D01*
X104235000Y-111800000D02*
X104235000Y-109340000D01*
X117250000Y-120560000D02*
X118925000Y-120560000D01*
X117250000Y-120560000D02*
X116600000Y-120560000D01*
X117250000Y-117440000D02*
X117900000Y-117440000D01*
X117250000Y-117440000D02*
X116600000Y-117440000D01*
X105004724Y-116522500D02*
X104495276Y-116522500D01*
X105004724Y-115477500D02*
X104495276Y-115477500D01*
X111000000Y-115440000D02*
X107550000Y-115440000D01*
X111000000Y-115440000D02*
X112950000Y-115440000D01*
X111000000Y-120560000D02*
X109050000Y-120560000D01*
X111000000Y-120560000D02*
X112950000Y-120560000D01*
X117504724Y-114772500D02*
X116995276Y-114772500D01*
X117504724Y-113727500D02*
X116995276Y-113727500D01*
X106272500Y-110745276D02*
X106272500Y-111254724D01*
X105227500Y-110745276D02*
X105227500Y-111254724D01*
%LPC*%
D12*
X103837500Y-114250000D03*
X105662500Y-114250000D03*
D13*
X118500000Y-110125000D03*
X118500000Y-111875000D03*
D14*
X104650000Y-125300000D03*
D15*
X107190000Y-125300000D03*
X109730000Y-125300000D03*
X112270000Y-125300000D03*
X114810000Y-125300000D03*
X117350000Y-125300000D03*
D12*
X116337500Y-116000000D03*
X118162500Y-116000000D03*
D16*
X105687500Y-119950000D03*
X105687500Y-118050000D03*
X103812500Y-119000000D03*
D17*
X112000000Y-112000000D03*
D18*
X110000000Y-112000000D03*
D19*
X103380000Y-104300000D03*
D20*
X108460000Y-104300000D03*
X113540000Y-104300000D03*
X118620000Y-104300000D03*
D21*
X116250000Y-110087500D03*
X116250000Y-111912500D03*
D13*
X103500000Y-110125000D03*
X103500000Y-111875000D03*
D16*
X118187500Y-119950000D03*
X118187500Y-118050000D03*
X116312500Y-119000000D03*
D22*
X105662500Y-116000000D03*
X103837500Y-116000000D03*
D23*
X108425000Y-116095000D03*
X108425000Y-117365000D03*
X108425000Y-118635000D03*
X108425000Y-119905000D03*
X113575000Y-119905000D03*
X113575000Y-118635000D03*
X113575000Y-117365000D03*
X113575000Y-116095000D03*
D22*
X118162500Y-114250000D03*
X116337500Y-114250000D03*
D21*
X105750000Y-110087500D03*
X105750000Y-111912500D03*
%LPD*%
M02*
