M48
; DRILL file {KiCad 7.0.10-7.0.10~ubuntu22.04.1} date 廿廿四年一月十六日 (週二) 廿三時48分廿四秒
; FORMAT={-:-/ absolute / metric / decimal}
; #@! TF.CreationDate,2024-01-16T23:48:24+08:00
; #@! TF.GenerationSoftware,Kicad,Pcbnew,7.0.10-7.0.10~ubuntu22.04.1
; #@! TF.FileFunction,Plated,1,2,PTH
FMAT,2
METRIC
; #@! TA.AperFunction,Plated,PTH,ViaDrill
T1C0.300
; #@! TA.AperFunction,Plated,PTH,ViaDrill
T2C0.400
; #@! TA.AperFunction,Plated,PTH,ComponentDrill
T3C0.800
; #@! TA.AperFunction,Plated,PTH,ComponentDrill
T4C1.000
; #@! TA.AperFunction,Plated,PTH,ComponentDrill
T5C1.520
%
G90
G05
T1
X101.5Y-112.0
X102.0Y-120.25
X102.75Y-115.25
X104.75Y-117.25
X106.5Y-118.75
X107.0Y-114.0
X107.75Y-114.75
X111.25Y-123.5
X113.5Y-123.5
X116.0Y-123.5
X116.25Y-117.25
X118.75Y-117.25
X119.25Y-115.25
X120.0Y-120.5
X120.25Y-112.0
T2
X110.25Y-108.5
X110.5Y-118.5
X112.0Y-116.75
X113.5Y-114.75
X116.0Y-121.0
X116.75Y-108.5
T3
X110.0Y-112.0
X112.0Y-112.0
T4
X104.65Y-125.3
X107.19Y-125.3
X109.73Y-125.3
X112.27Y-125.3
X114.81Y-125.3
X117.35Y-125.3
T5
X103.38Y-104.3
X108.46Y-104.3
X113.54Y-104.3
X118.62Y-104.3
M30
