%TF.GenerationSoftware,KiCad,Pcbnew,7.0.10-7.0.10~ubuntu22.04.1*%
%TF.CreationDate,2024-01-16T23:48:33+08:00*%
%TF.ProjectId,EL_oscillator,454c5f6f-7363-4696-9c6c-61746f722e6b,rev?*%
%TF.SameCoordinates,Original*%
%TF.FileFunction,Drillmap*%
%TF.FilePolarity,Positive*%
%FSLAX45Y45*%
G04 Gerber Fmt 4.5, Leading zero omitted, Abs format (unit mm)*
G04 Created by KiCad (PCBNEW 7.0.10-7.0.10~ubuntu22.04.1) date 2024-01-16 23:48:33*
%MOMM*%
%LPD*%
G01*
G04 APERTURE LIST*
%ADD10C,0.200000*%
%ADD11C,0.100000*%
%ADD12C,0.152000*%
G04 APERTURE END LIST*
D10*
X10000000Y-10000000D02*
X12200000Y-10000000D01*
X12200000Y-12700000D01*
X10000000Y-12700000D01*
X10000000Y-10000000D01*
D11*
X10135000Y-11185000D02*
X10165000Y-11215000D01*
X10165000Y-11185000D02*
X10135000Y-11215000D01*
X10185000Y-12010000D02*
X10215000Y-12040000D01*
X10215000Y-12010000D02*
X10185000Y-12040000D01*
X10260000Y-11510000D02*
X10290000Y-11540000D01*
X10290000Y-11510000D02*
X10260000Y-11540000D01*
X10460000Y-11710000D02*
X10490000Y-11740000D01*
X10490000Y-11710000D02*
X10460000Y-11740000D01*
X10635000Y-11860000D02*
X10665000Y-11890000D01*
X10665000Y-11860000D02*
X10635000Y-11890000D01*
X10685000Y-11385000D02*
X10715000Y-11415000D01*
X10715000Y-11385000D02*
X10685000Y-11415000D01*
X10760000Y-11460000D02*
X10790000Y-11490000D01*
X10790000Y-11460000D02*
X10760000Y-11490000D01*
X11110000Y-12335000D02*
X11140000Y-12365000D01*
X11140000Y-12335000D02*
X11110000Y-12365000D01*
X11335000Y-12335000D02*
X11365000Y-12365000D01*
X11365000Y-12335000D02*
X11335000Y-12365000D01*
X11585000Y-12335000D02*
X11615000Y-12365000D01*
X11615000Y-12335000D02*
X11585000Y-12365000D01*
X11610000Y-11710000D02*
X11640000Y-11740000D01*
X11640000Y-11710000D02*
X11610000Y-11740000D01*
X11860000Y-11710000D02*
X11890000Y-11740000D01*
X11890000Y-11710000D02*
X11860000Y-11740000D01*
X11910000Y-11510000D02*
X11940000Y-11540000D01*
X11940000Y-11510000D02*
X11910000Y-11540000D01*
X11985000Y-12035000D02*
X12015000Y-12065000D01*
X12015000Y-12035000D02*
X11985000Y-12065000D01*
X12010000Y-11185000D02*
X12040000Y-11215000D01*
X12040000Y-11185000D02*
X12010000Y-11215000D01*
X11045000Y-10850000D02*
G75*
G03*
X11005000Y-10850000I-20000J0D01*
G01*
X11005000Y-10850000D02*
G75*
G03*
X11045000Y-10850000I20000J0D01*
G01*
X11070000Y-11850000D02*
G75*
G03*
X11030000Y-11850000I-20000J0D01*
G01*
X11030000Y-11850000D02*
G75*
G03*
X11070000Y-11850000I20000J0D01*
G01*
X11220000Y-11675000D02*
G75*
G03*
X11180000Y-11675000I-20000J0D01*
G01*
X11180000Y-11675000D02*
G75*
G03*
X11220000Y-11675000I20000J0D01*
G01*
X11370000Y-11475000D02*
G75*
G03*
X11330000Y-11475000I-20000J0D01*
G01*
X11330000Y-11475000D02*
G75*
G03*
X11370000Y-11475000I20000J0D01*
G01*
X11620000Y-12100000D02*
G75*
G03*
X11580000Y-12100000I-20000J0D01*
G01*
X11580000Y-12100000D02*
G75*
G03*
X11620000Y-12100000I20000J0D01*
G01*
X11695000Y-10850000D02*
G75*
G03*
X11655000Y-10850000I-20000J0D01*
G01*
X11655000Y-10850000D02*
G75*
G03*
X11695000Y-10850000I20000J0D01*
G01*
X11000000Y-11160000D02*
X11000000Y-11240000D01*
X10960000Y-11200000D02*
X11040000Y-11200000D01*
X11200000Y-11160000D02*
X11200000Y-11240000D01*
X11160000Y-11200000D02*
X11240000Y-11200000D01*
X10500356Y-12565356D02*
X10500356Y-12494644D01*
X10429644Y-12494644D01*
X10429644Y-12565356D01*
X10500356Y-12565356D01*
X10754356Y-12565356D02*
X10754356Y-12494644D01*
X10683644Y-12494644D01*
X10683644Y-12565356D01*
X10754356Y-12565356D01*
X11008356Y-12565356D02*
X11008356Y-12494644D01*
X10937644Y-12494644D01*
X10937644Y-12565356D01*
X11008356Y-12565356D01*
X11262356Y-12565356D02*
X11262356Y-12494644D01*
X11191644Y-12494644D01*
X11191644Y-12565356D01*
X11262356Y-12565356D01*
X11516356Y-12565356D02*
X11516356Y-12494644D01*
X11445644Y-12494644D01*
X11445644Y-12565356D01*
X11516356Y-12565356D01*
X11770356Y-12565356D02*
X11770356Y-12494644D01*
X11699644Y-12494644D01*
X11699644Y-12565356D01*
X11770356Y-12565356D01*
D12*
X10338000Y-10506000D02*
X10414000Y-10430000D01*
X10338000Y-10354000D01*
X10262000Y-10430000D01*
X10338000Y-10506000D01*
X10846000Y-10506000D02*
X10922000Y-10430000D01*
X10846000Y-10354000D01*
X10770000Y-10430000D01*
X10846000Y-10506000D01*
X11354000Y-10506000D02*
X11430000Y-10430000D01*
X11354000Y-10354000D01*
X11278000Y-10430000D01*
X11354000Y-10506000D01*
X11862000Y-10506000D02*
X11938000Y-10430000D01*
X11862000Y-10354000D01*
X11786000Y-10430000D01*
X11862000Y-10506000D01*
D10*
X10250777Y-13021484D02*
X10250777Y-12821484D01*
X10250777Y-12821484D02*
X10298396Y-12821484D01*
X10298396Y-12821484D02*
X10326967Y-12831008D01*
X10326967Y-12831008D02*
X10346015Y-12850055D01*
X10346015Y-12850055D02*
X10355539Y-12869103D01*
X10355539Y-12869103D02*
X10365063Y-12907198D01*
X10365063Y-12907198D02*
X10365063Y-12935769D01*
X10365063Y-12935769D02*
X10355539Y-12973865D01*
X10355539Y-12973865D02*
X10346015Y-12992912D01*
X10346015Y-12992912D02*
X10326967Y-13011960D01*
X10326967Y-13011960D02*
X10298396Y-13021484D01*
X10298396Y-13021484D02*
X10250777Y-13021484D01*
X10450777Y-13021484D02*
X10450777Y-12888150D01*
X10450777Y-12926246D02*
X10460301Y-12907198D01*
X10460301Y-12907198D02*
X10469824Y-12897674D01*
X10469824Y-12897674D02*
X10488872Y-12888150D01*
X10488872Y-12888150D02*
X10507920Y-12888150D01*
X10574586Y-13021484D02*
X10574586Y-12888150D01*
X10574586Y-12821484D02*
X10565063Y-12831008D01*
X10565063Y-12831008D02*
X10574586Y-12840531D01*
X10574586Y-12840531D02*
X10584110Y-12831008D01*
X10584110Y-12831008D02*
X10574586Y-12821484D01*
X10574586Y-12821484D02*
X10574586Y-12840531D01*
X10698396Y-13021484D02*
X10679348Y-13011960D01*
X10679348Y-13011960D02*
X10669824Y-12992912D01*
X10669824Y-12992912D02*
X10669824Y-12821484D01*
X10803158Y-13021484D02*
X10784110Y-13011960D01*
X10784110Y-13011960D02*
X10774586Y-12992912D01*
X10774586Y-12992912D02*
X10774586Y-12821484D01*
X11031729Y-13021484D02*
X11031729Y-12821484D01*
X11031729Y-12821484D02*
X11098396Y-12964341D01*
X11098396Y-12964341D02*
X11165063Y-12821484D01*
X11165063Y-12821484D02*
X11165063Y-13021484D01*
X11346015Y-13021484D02*
X11346015Y-12916722D01*
X11346015Y-12916722D02*
X11336491Y-12897674D01*
X11336491Y-12897674D02*
X11317443Y-12888150D01*
X11317443Y-12888150D02*
X11279348Y-12888150D01*
X11279348Y-12888150D02*
X11260301Y-12897674D01*
X11346015Y-13011960D02*
X11326967Y-13021484D01*
X11326967Y-13021484D02*
X11279348Y-13021484D01*
X11279348Y-13021484D02*
X11260301Y-13011960D01*
X11260301Y-13011960D02*
X11250777Y-12992912D01*
X11250777Y-12992912D02*
X11250777Y-12973865D01*
X11250777Y-12973865D02*
X11260301Y-12954817D01*
X11260301Y-12954817D02*
X11279348Y-12945293D01*
X11279348Y-12945293D02*
X11326967Y-12945293D01*
X11326967Y-12945293D02*
X11346015Y-12935769D01*
X11441253Y-12888150D02*
X11441253Y-13088150D01*
X11441253Y-12897674D02*
X11460301Y-12888150D01*
X11460301Y-12888150D02*
X11498396Y-12888150D01*
X11498396Y-12888150D02*
X11517443Y-12897674D01*
X11517443Y-12897674D02*
X11526967Y-12907198D01*
X11526967Y-12907198D02*
X11536491Y-12926246D01*
X11536491Y-12926246D02*
X11536491Y-12983388D01*
X11536491Y-12983388D02*
X11526967Y-13002436D01*
X11526967Y-13002436D02*
X11517443Y-13011960D01*
X11517443Y-13011960D02*
X11498396Y-13021484D01*
X11498396Y-13021484D02*
X11460301Y-13021484D01*
X11460301Y-13021484D02*
X11441253Y-13011960D01*
X11622205Y-13002436D02*
X11631729Y-13011960D01*
X11631729Y-13011960D02*
X11622205Y-13021484D01*
X11622205Y-13021484D02*
X11612682Y-13011960D01*
X11612682Y-13011960D02*
X11622205Y-13002436D01*
X11622205Y-13002436D02*
X11622205Y-13021484D01*
X11622205Y-12897674D02*
X11631729Y-12907198D01*
X11631729Y-12907198D02*
X11622205Y-12916722D01*
X11622205Y-12916722D02*
X11612682Y-12907198D01*
X11612682Y-12907198D02*
X11622205Y-12897674D01*
X11622205Y-12897674D02*
X11622205Y-12916722D01*
D11*
X9960000Y-13335000D02*
X9990000Y-13365000D01*
X9990000Y-13335000D02*
X9960000Y-13365000D01*
D10*
X10288872Y-13241484D02*
X10307920Y-13241484D01*
X10307920Y-13241484D02*
X10326967Y-13251008D01*
X10326967Y-13251008D02*
X10336491Y-13260531D01*
X10336491Y-13260531D02*
X10346015Y-13279579D01*
X10346015Y-13279579D02*
X10355539Y-13317674D01*
X10355539Y-13317674D02*
X10355539Y-13365293D01*
X10355539Y-13365293D02*
X10346015Y-13403388D01*
X10346015Y-13403388D02*
X10336491Y-13422436D01*
X10336491Y-13422436D02*
X10326967Y-13431960D01*
X10326967Y-13431960D02*
X10307920Y-13441484D01*
X10307920Y-13441484D02*
X10288872Y-13441484D01*
X10288872Y-13441484D02*
X10269824Y-13431960D01*
X10269824Y-13431960D02*
X10260301Y-13422436D01*
X10260301Y-13422436D02*
X10250777Y-13403388D01*
X10250777Y-13403388D02*
X10241253Y-13365293D01*
X10241253Y-13365293D02*
X10241253Y-13317674D01*
X10241253Y-13317674D02*
X10250777Y-13279579D01*
X10250777Y-13279579D02*
X10260301Y-13260531D01*
X10260301Y-13260531D02*
X10269824Y-13251008D01*
X10269824Y-13251008D02*
X10288872Y-13241484D01*
X10441253Y-13422436D02*
X10450777Y-13431960D01*
X10450777Y-13431960D02*
X10441253Y-13441484D01*
X10441253Y-13441484D02*
X10431729Y-13431960D01*
X10431729Y-13431960D02*
X10441253Y-13422436D01*
X10441253Y-13422436D02*
X10441253Y-13441484D01*
X10517444Y-13241484D02*
X10641253Y-13241484D01*
X10641253Y-13241484D02*
X10574586Y-13317674D01*
X10574586Y-13317674D02*
X10603158Y-13317674D01*
X10603158Y-13317674D02*
X10622205Y-13327198D01*
X10622205Y-13327198D02*
X10631729Y-13336722D01*
X10631729Y-13336722D02*
X10641253Y-13355769D01*
X10641253Y-13355769D02*
X10641253Y-13403388D01*
X10641253Y-13403388D02*
X10631729Y-13422436D01*
X10631729Y-13422436D02*
X10622205Y-13431960D01*
X10622205Y-13431960D02*
X10603158Y-13441484D01*
X10603158Y-13441484D02*
X10546015Y-13441484D01*
X10546015Y-13441484D02*
X10526967Y-13431960D01*
X10526967Y-13431960D02*
X10517444Y-13422436D01*
X10765063Y-13241484D02*
X10784110Y-13241484D01*
X10784110Y-13241484D02*
X10803158Y-13251008D01*
X10803158Y-13251008D02*
X10812682Y-13260531D01*
X10812682Y-13260531D02*
X10822205Y-13279579D01*
X10822205Y-13279579D02*
X10831729Y-13317674D01*
X10831729Y-13317674D02*
X10831729Y-13365293D01*
X10831729Y-13365293D02*
X10822205Y-13403388D01*
X10822205Y-13403388D02*
X10812682Y-13422436D01*
X10812682Y-13422436D02*
X10803158Y-13431960D01*
X10803158Y-13431960D02*
X10784110Y-13441484D01*
X10784110Y-13441484D02*
X10765063Y-13441484D01*
X10765063Y-13441484D02*
X10746015Y-13431960D01*
X10746015Y-13431960D02*
X10736491Y-13422436D01*
X10736491Y-13422436D02*
X10726967Y-13403388D01*
X10726967Y-13403388D02*
X10717444Y-13365293D01*
X10717444Y-13365293D02*
X10717444Y-13317674D01*
X10717444Y-13317674D02*
X10726967Y-13279579D01*
X10726967Y-13279579D02*
X10736491Y-13260531D01*
X10736491Y-13260531D02*
X10746015Y-13251008D01*
X10746015Y-13251008D02*
X10765063Y-13241484D01*
X10955539Y-13241484D02*
X10974586Y-13241484D01*
X10974586Y-13241484D02*
X10993634Y-13251008D01*
X10993634Y-13251008D02*
X11003158Y-13260531D01*
X11003158Y-13260531D02*
X11012682Y-13279579D01*
X11012682Y-13279579D02*
X11022205Y-13317674D01*
X11022205Y-13317674D02*
X11022205Y-13365293D01*
X11022205Y-13365293D02*
X11012682Y-13403388D01*
X11012682Y-13403388D02*
X11003158Y-13422436D01*
X11003158Y-13422436D02*
X10993634Y-13431960D01*
X10993634Y-13431960D02*
X10974586Y-13441484D01*
X10974586Y-13441484D02*
X10955539Y-13441484D01*
X10955539Y-13441484D02*
X10936491Y-13431960D01*
X10936491Y-13431960D02*
X10926967Y-13422436D01*
X10926967Y-13422436D02*
X10917444Y-13403388D01*
X10917444Y-13403388D02*
X10907920Y-13365293D01*
X10907920Y-13365293D02*
X10907920Y-13317674D01*
X10907920Y-13317674D02*
X10917444Y-13279579D01*
X10917444Y-13279579D02*
X10926967Y-13260531D01*
X10926967Y-13260531D02*
X10936491Y-13251008D01*
X10936491Y-13251008D02*
X10955539Y-13241484D01*
X11107920Y-13441484D02*
X11107920Y-13308150D01*
X11107920Y-13327198D02*
X11117444Y-13317674D01*
X11117444Y-13317674D02*
X11136491Y-13308150D01*
X11136491Y-13308150D02*
X11165063Y-13308150D01*
X11165063Y-13308150D02*
X11184110Y-13317674D01*
X11184110Y-13317674D02*
X11193634Y-13336722D01*
X11193634Y-13336722D02*
X11193634Y-13441484D01*
X11193634Y-13336722D02*
X11203158Y-13317674D01*
X11203158Y-13317674D02*
X11222205Y-13308150D01*
X11222205Y-13308150D02*
X11250777Y-13308150D01*
X11250777Y-13308150D02*
X11269824Y-13317674D01*
X11269824Y-13317674D02*
X11279348Y-13336722D01*
X11279348Y-13336722D02*
X11279348Y-13441484D01*
X11374586Y-13441484D02*
X11374586Y-13308150D01*
X11374586Y-13327198D02*
X11384110Y-13317674D01*
X11384110Y-13317674D02*
X11403158Y-13308150D01*
X11403158Y-13308150D02*
X11431729Y-13308150D01*
X11431729Y-13308150D02*
X11450777Y-13317674D01*
X11450777Y-13317674D02*
X11460301Y-13336722D01*
X11460301Y-13336722D02*
X11460301Y-13441484D01*
X11460301Y-13336722D02*
X11469824Y-13317674D01*
X11469824Y-13317674D02*
X11488872Y-13308150D01*
X11488872Y-13308150D02*
X11517443Y-13308150D01*
X11517443Y-13308150D02*
X11536491Y-13317674D01*
X11536491Y-13317674D02*
X11546015Y-13336722D01*
X11546015Y-13336722D02*
X11546015Y-13441484D01*
X11936491Y-13231960D02*
X11765063Y-13489103D01*
X12193634Y-13241484D02*
X12212682Y-13241484D01*
X12212682Y-13241484D02*
X12231729Y-13251008D01*
X12231729Y-13251008D02*
X12241253Y-13260531D01*
X12241253Y-13260531D02*
X12250777Y-13279579D01*
X12250777Y-13279579D02*
X12260301Y-13317674D01*
X12260301Y-13317674D02*
X12260301Y-13365293D01*
X12260301Y-13365293D02*
X12250777Y-13403388D01*
X12250777Y-13403388D02*
X12241253Y-13422436D01*
X12241253Y-13422436D02*
X12231729Y-13431960D01*
X12231729Y-13431960D02*
X12212682Y-13441484D01*
X12212682Y-13441484D02*
X12193634Y-13441484D01*
X12193634Y-13441484D02*
X12174586Y-13431960D01*
X12174586Y-13431960D02*
X12165063Y-13422436D01*
X12165063Y-13422436D02*
X12155539Y-13403388D01*
X12155539Y-13403388D02*
X12146015Y-13365293D01*
X12146015Y-13365293D02*
X12146015Y-13317674D01*
X12146015Y-13317674D02*
X12155539Y-13279579D01*
X12155539Y-13279579D02*
X12165063Y-13260531D01*
X12165063Y-13260531D02*
X12174586Y-13251008D01*
X12174586Y-13251008D02*
X12193634Y-13241484D01*
X12346015Y-13422436D02*
X12355539Y-13431960D01*
X12355539Y-13431960D02*
X12346015Y-13441484D01*
X12346015Y-13441484D02*
X12336491Y-13431960D01*
X12336491Y-13431960D02*
X12346015Y-13422436D01*
X12346015Y-13422436D02*
X12346015Y-13441484D01*
X12479348Y-13241484D02*
X12498396Y-13241484D01*
X12498396Y-13241484D02*
X12517444Y-13251008D01*
X12517444Y-13251008D02*
X12526967Y-13260531D01*
X12526967Y-13260531D02*
X12536491Y-13279579D01*
X12536491Y-13279579D02*
X12546015Y-13317674D01*
X12546015Y-13317674D02*
X12546015Y-13365293D01*
X12546015Y-13365293D02*
X12536491Y-13403388D01*
X12536491Y-13403388D02*
X12526967Y-13422436D01*
X12526967Y-13422436D02*
X12517444Y-13431960D01*
X12517444Y-13431960D02*
X12498396Y-13441484D01*
X12498396Y-13441484D02*
X12479348Y-13441484D01*
X12479348Y-13441484D02*
X12460301Y-13431960D01*
X12460301Y-13431960D02*
X12450777Y-13422436D01*
X12450777Y-13422436D02*
X12441253Y-13403388D01*
X12441253Y-13403388D02*
X12431729Y-13365293D01*
X12431729Y-13365293D02*
X12431729Y-13317674D01*
X12431729Y-13317674D02*
X12441253Y-13279579D01*
X12441253Y-13279579D02*
X12450777Y-13260531D01*
X12450777Y-13260531D02*
X12460301Y-13251008D01*
X12460301Y-13251008D02*
X12479348Y-13241484D01*
X12736491Y-13441484D02*
X12622206Y-13441484D01*
X12679348Y-13441484D02*
X12679348Y-13241484D01*
X12679348Y-13241484D02*
X12660301Y-13270055D01*
X12660301Y-13270055D02*
X12641253Y-13289103D01*
X12641253Y-13289103D02*
X12622206Y-13298627D01*
X12926967Y-13441484D02*
X12812682Y-13441484D01*
X12869825Y-13441484D02*
X12869825Y-13241484D01*
X12869825Y-13241484D02*
X12850777Y-13270055D01*
X12850777Y-13270055D02*
X12831729Y-13289103D01*
X12831729Y-13289103D02*
X12812682Y-13298627D01*
X13041253Y-13327198D02*
X13022206Y-13317674D01*
X13022206Y-13317674D02*
X13012682Y-13308150D01*
X13012682Y-13308150D02*
X13003158Y-13289103D01*
X13003158Y-13289103D02*
X13003158Y-13279579D01*
X13003158Y-13279579D02*
X13012682Y-13260531D01*
X13012682Y-13260531D02*
X13022206Y-13251008D01*
X13022206Y-13251008D02*
X13041253Y-13241484D01*
X13041253Y-13241484D02*
X13079348Y-13241484D01*
X13079348Y-13241484D02*
X13098396Y-13251008D01*
X13098396Y-13251008D02*
X13107920Y-13260531D01*
X13107920Y-13260531D02*
X13117444Y-13279579D01*
X13117444Y-13279579D02*
X13117444Y-13289103D01*
X13117444Y-13289103D02*
X13107920Y-13308150D01*
X13107920Y-13308150D02*
X13098396Y-13317674D01*
X13098396Y-13317674D02*
X13079348Y-13327198D01*
X13079348Y-13327198D02*
X13041253Y-13327198D01*
X13041253Y-13327198D02*
X13022206Y-13336722D01*
X13022206Y-13336722D02*
X13012682Y-13346246D01*
X13012682Y-13346246D02*
X13003158Y-13365293D01*
X13003158Y-13365293D02*
X13003158Y-13403388D01*
X13003158Y-13403388D02*
X13012682Y-13422436D01*
X13012682Y-13422436D02*
X13022206Y-13431960D01*
X13022206Y-13431960D02*
X13041253Y-13441484D01*
X13041253Y-13441484D02*
X13079348Y-13441484D01*
X13079348Y-13441484D02*
X13098396Y-13431960D01*
X13098396Y-13431960D02*
X13107920Y-13422436D01*
X13107920Y-13422436D02*
X13117444Y-13403388D01*
X13117444Y-13403388D02*
X13117444Y-13365293D01*
X13117444Y-13365293D02*
X13107920Y-13346246D01*
X13107920Y-13346246D02*
X13098396Y-13336722D01*
X13098396Y-13336722D02*
X13079348Y-13327198D01*
X13193634Y-13241484D02*
X13193634Y-13279579D01*
X13269825Y-13241484D02*
X13269825Y-13279579D01*
X13565063Y-13517674D02*
X13555539Y-13508150D01*
X13555539Y-13508150D02*
X13536491Y-13479579D01*
X13536491Y-13479579D02*
X13526968Y-13460531D01*
X13526968Y-13460531D02*
X13517444Y-13431960D01*
X13517444Y-13431960D02*
X13507920Y-13384341D01*
X13507920Y-13384341D02*
X13507920Y-13346246D01*
X13507920Y-13346246D02*
X13517444Y-13298627D01*
X13517444Y-13298627D02*
X13526968Y-13270055D01*
X13526968Y-13270055D02*
X13536491Y-13251008D01*
X13536491Y-13251008D02*
X13555539Y-13222436D01*
X13555539Y-13222436D02*
X13565063Y-13212912D01*
X13746015Y-13441484D02*
X13631729Y-13441484D01*
X13688872Y-13441484D02*
X13688872Y-13241484D01*
X13688872Y-13241484D02*
X13669825Y-13270055D01*
X13669825Y-13270055D02*
X13650777Y-13289103D01*
X13650777Y-13289103D02*
X13631729Y-13298627D01*
X13926968Y-13241484D02*
X13831729Y-13241484D01*
X13831729Y-13241484D02*
X13822206Y-13336722D01*
X13822206Y-13336722D02*
X13831729Y-13327198D01*
X13831729Y-13327198D02*
X13850777Y-13317674D01*
X13850777Y-13317674D02*
X13898396Y-13317674D01*
X13898396Y-13317674D02*
X13917444Y-13327198D01*
X13917444Y-13327198D02*
X13926968Y-13336722D01*
X13926968Y-13336722D02*
X13936491Y-13355769D01*
X13936491Y-13355769D02*
X13936491Y-13403388D01*
X13936491Y-13403388D02*
X13926968Y-13422436D01*
X13926968Y-13422436D02*
X13917444Y-13431960D01*
X13917444Y-13431960D02*
X13898396Y-13441484D01*
X13898396Y-13441484D02*
X13850777Y-13441484D01*
X13850777Y-13441484D02*
X13831729Y-13431960D01*
X13831729Y-13431960D02*
X13822206Y-13422436D01*
X14174587Y-13441484D02*
X14174587Y-13241484D01*
X14260301Y-13441484D02*
X14260301Y-13336722D01*
X14260301Y-13336722D02*
X14250777Y-13317674D01*
X14250777Y-13317674D02*
X14231730Y-13308150D01*
X14231730Y-13308150D02*
X14203158Y-13308150D01*
X14203158Y-13308150D02*
X14184110Y-13317674D01*
X14184110Y-13317674D02*
X14174587Y-13327198D01*
X14384110Y-13441484D02*
X14365063Y-13431960D01*
X14365063Y-13431960D02*
X14355539Y-13422436D01*
X14355539Y-13422436D02*
X14346015Y-13403388D01*
X14346015Y-13403388D02*
X14346015Y-13346246D01*
X14346015Y-13346246D02*
X14355539Y-13327198D01*
X14355539Y-13327198D02*
X14365063Y-13317674D01*
X14365063Y-13317674D02*
X14384110Y-13308150D01*
X14384110Y-13308150D02*
X14412682Y-13308150D01*
X14412682Y-13308150D02*
X14431730Y-13317674D01*
X14431730Y-13317674D02*
X14441253Y-13327198D01*
X14441253Y-13327198D02*
X14450777Y-13346246D01*
X14450777Y-13346246D02*
X14450777Y-13403388D01*
X14450777Y-13403388D02*
X14441253Y-13422436D01*
X14441253Y-13422436D02*
X14431730Y-13431960D01*
X14431730Y-13431960D02*
X14412682Y-13441484D01*
X14412682Y-13441484D02*
X14384110Y-13441484D01*
X14565063Y-13441484D02*
X14546015Y-13431960D01*
X14546015Y-13431960D02*
X14536491Y-13412912D01*
X14536491Y-13412912D02*
X14536491Y-13241484D01*
X14717444Y-13431960D02*
X14698396Y-13441484D01*
X14698396Y-13441484D02*
X14660301Y-13441484D01*
X14660301Y-13441484D02*
X14641253Y-13431960D01*
X14641253Y-13431960D02*
X14631730Y-13412912D01*
X14631730Y-13412912D02*
X14631730Y-13336722D01*
X14631730Y-13336722D02*
X14641253Y-13317674D01*
X14641253Y-13317674D02*
X14660301Y-13308150D01*
X14660301Y-13308150D02*
X14698396Y-13308150D01*
X14698396Y-13308150D02*
X14717444Y-13317674D01*
X14717444Y-13317674D02*
X14726968Y-13336722D01*
X14726968Y-13336722D02*
X14726968Y-13355769D01*
X14726968Y-13355769D02*
X14631730Y-13374817D01*
X14803158Y-13431960D02*
X14822206Y-13441484D01*
X14822206Y-13441484D02*
X14860301Y-13441484D01*
X14860301Y-13441484D02*
X14879349Y-13431960D01*
X14879349Y-13431960D02*
X14888872Y-13412912D01*
X14888872Y-13412912D02*
X14888872Y-13403388D01*
X14888872Y-13403388D02*
X14879349Y-13384341D01*
X14879349Y-13384341D02*
X14860301Y-13374817D01*
X14860301Y-13374817D02*
X14831730Y-13374817D01*
X14831730Y-13374817D02*
X14812682Y-13365293D01*
X14812682Y-13365293D02*
X14803158Y-13346246D01*
X14803158Y-13346246D02*
X14803158Y-13336722D01*
X14803158Y-13336722D02*
X14812682Y-13317674D01*
X14812682Y-13317674D02*
X14831730Y-13308150D01*
X14831730Y-13308150D02*
X14860301Y-13308150D01*
X14860301Y-13308150D02*
X14879349Y-13317674D01*
X14955539Y-13517674D02*
X14965063Y-13508150D01*
X14965063Y-13508150D02*
X14984111Y-13479579D01*
X14984111Y-13479579D02*
X14993634Y-13460531D01*
X14993634Y-13460531D02*
X15003158Y-13431960D01*
X15003158Y-13431960D02*
X15012682Y-13384341D01*
X15012682Y-13384341D02*
X15012682Y-13346246D01*
X15012682Y-13346246D02*
X15003158Y-13298627D01*
X15003158Y-13298627D02*
X14993634Y-13270055D01*
X14993634Y-13270055D02*
X14984111Y-13251008D01*
X14984111Y-13251008D02*
X14965063Y-13222436D01*
X14965063Y-13222436D02*
X14955539Y-13212912D01*
D11*
X9990000Y-13614000D02*
G75*
G03*
X9950000Y-13614000I-20000J0D01*
G01*
X9950000Y-13614000D02*
G75*
G03*
X9990000Y-13614000I20000J0D01*
G01*
D10*
X10288872Y-13505484D02*
X10307920Y-13505484D01*
X10307920Y-13505484D02*
X10326967Y-13515008D01*
X10326967Y-13515008D02*
X10336491Y-13524531D01*
X10336491Y-13524531D02*
X10346015Y-13543579D01*
X10346015Y-13543579D02*
X10355539Y-13581674D01*
X10355539Y-13581674D02*
X10355539Y-13629293D01*
X10355539Y-13629293D02*
X10346015Y-13667388D01*
X10346015Y-13667388D02*
X10336491Y-13686436D01*
X10336491Y-13686436D02*
X10326967Y-13695960D01*
X10326967Y-13695960D02*
X10307920Y-13705484D01*
X10307920Y-13705484D02*
X10288872Y-13705484D01*
X10288872Y-13705484D02*
X10269824Y-13695960D01*
X10269824Y-13695960D02*
X10260301Y-13686436D01*
X10260301Y-13686436D02*
X10250777Y-13667388D01*
X10250777Y-13667388D02*
X10241253Y-13629293D01*
X10241253Y-13629293D02*
X10241253Y-13581674D01*
X10241253Y-13581674D02*
X10250777Y-13543579D01*
X10250777Y-13543579D02*
X10260301Y-13524531D01*
X10260301Y-13524531D02*
X10269824Y-13515008D01*
X10269824Y-13515008D02*
X10288872Y-13505484D01*
X10441253Y-13686436D02*
X10450777Y-13695960D01*
X10450777Y-13695960D02*
X10441253Y-13705484D01*
X10441253Y-13705484D02*
X10431729Y-13695960D01*
X10431729Y-13695960D02*
X10441253Y-13686436D01*
X10441253Y-13686436D02*
X10441253Y-13705484D01*
X10622205Y-13572150D02*
X10622205Y-13705484D01*
X10574586Y-13495960D02*
X10526967Y-13638817D01*
X10526967Y-13638817D02*
X10650777Y-13638817D01*
X10765063Y-13505484D02*
X10784110Y-13505484D01*
X10784110Y-13505484D02*
X10803158Y-13515008D01*
X10803158Y-13515008D02*
X10812682Y-13524531D01*
X10812682Y-13524531D02*
X10822205Y-13543579D01*
X10822205Y-13543579D02*
X10831729Y-13581674D01*
X10831729Y-13581674D02*
X10831729Y-13629293D01*
X10831729Y-13629293D02*
X10822205Y-13667388D01*
X10822205Y-13667388D02*
X10812682Y-13686436D01*
X10812682Y-13686436D02*
X10803158Y-13695960D01*
X10803158Y-13695960D02*
X10784110Y-13705484D01*
X10784110Y-13705484D02*
X10765063Y-13705484D01*
X10765063Y-13705484D02*
X10746015Y-13695960D01*
X10746015Y-13695960D02*
X10736491Y-13686436D01*
X10736491Y-13686436D02*
X10726967Y-13667388D01*
X10726967Y-13667388D02*
X10717444Y-13629293D01*
X10717444Y-13629293D02*
X10717444Y-13581674D01*
X10717444Y-13581674D02*
X10726967Y-13543579D01*
X10726967Y-13543579D02*
X10736491Y-13524531D01*
X10736491Y-13524531D02*
X10746015Y-13515008D01*
X10746015Y-13515008D02*
X10765063Y-13505484D01*
X10955539Y-13505484D02*
X10974586Y-13505484D01*
X10974586Y-13505484D02*
X10993634Y-13515008D01*
X10993634Y-13515008D02*
X11003158Y-13524531D01*
X11003158Y-13524531D02*
X11012682Y-13543579D01*
X11012682Y-13543579D02*
X11022205Y-13581674D01*
X11022205Y-13581674D02*
X11022205Y-13629293D01*
X11022205Y-13629293D02*
X11012682Y-13667388D01*
X11012682Y-13667388D02*
X11003158Y-13686436D01*
X11003158Y-13686436D02*
X10993634Y-13695960D01*
X10993634Y-13695960D02*
X10974586Y-13705484D01*
X10974586Y-13705484D02*
X10955539Y-13705484D01*
X10955539Y-13705484D02*
X10936491Y-13695960D01*
X10936491Y-13695960D02*
X10926967Y-13686436D01*
X10926967Y-13686436D02*
X10917444Y-13667388D01*
X10917444Y-13667388D02*
X10907920Y-13629293D01*
X10907920Y-13629293D02*
X10907920Y-13581674D01*
X10907920Y-13581674D02*
X10917444Y-13543579D01*
X10917444Y-13543579D02*
X10926967Y-13524531D01*
X10926967Y-13524531D02*
X10936491Y-13515008D01*
X10936491Y-13515008D02*
X10955539Y-13505484D01*
X11107920Y-13705484D02*
X11107920Y-13572150D01*
X11107920Y-13591198D02*
X11117444Y-13581674D01*
X11117444Y-13581674D02*
X11136491Y-13572150D01*
X11136491Y-13572150D02*
X11165063Y-13572150D01*
X11165063Y-13572150D02*
X11184110Y-13581674D01*
X11184110Y-13581674D02*
X11193634Y-13600722D01*
X11193634Y-13600722D02*
X11193634Y-13705484D01*
X11193634Y-13600722D02*
X11203158Y-13581674D01*
X11203158Y-13581674D02*
X11222205Y-13572150D01*
X11222205Y-13572150D02*
X11250777Y-13572150D01*
X11250777Y-13572150D02*
X11269824Y-13581674D01*
X11269824Y-13581674D02*
X11279348Y-13600722D01*
X11279348Y-13600722D02*
X11279348Y-13705484D01*
X11374586Y-13705484D02*
X11374586Y-13572150D01*
X11374586Y-13591198D02*
X11384110Y-13581674D01*
X11384110Y-13581674D02*
X11403158Y-13572150D01*
X11403158Y-13572150D02*
X11431729Y-13572150D01*
X11431729Y-13572150D02*
X11450777Y-13581674D01*
X11450777Y-13581674D02*
X11460301Y-13600722D01*
X11460301Y-13600722D02*
X11460301Y-13705484D01*
X11460301Y-13600722D02*
X11469824Y-13581674D01*
X11469824Y-13581674D02*
X11488872Y-13572150D01*
X11488872Y-13572150D02*
X11517443Y-13572150D01*
X11517443Y-13572150D02*
X11536491Y-13581674D01*
X11536491Y-13581674D02*
X11546015Y-13600722D01*
X11546015Y-13600722D02*
X11546015Y-13705484D01*
X11936491Y-13495960D02*
X11765063Y-13753103D01*
X12193634Y-13505484D02*
X12212682Y-13505484D01*
X12212682Y-13505484D02*
X12231729Y-13515008D01*
X12231729Y-13515008D02*
X12241253Y-13524531D01*
X12241253Y-13524531D02*
X12250777Y-13543579D01*
X12250777Y-13543579D02*
X12260301Y-13581674D01*
X12260301Y-13581674D02*
X12260301Y-13629293D01*
X12260301Y-13629293D02*
X12250777Y-13667388D01*
X12250777Y-13667388D02*
X12241253Y-13686436D01*
X12241253Y-13686436D02*
X12231729Y-13695960D01*
X12231729Y-13695960D02*
X12212682Y-13705484D01*
X12212682Y-13705484D02*
X12193634Y-13705484D01*
X12193634Y-13705484D02*
X12174586Y-13695960D01*
X12174586Y-13695960D02*
X12165063Y-13686436D01*
X12165063Y-13686436D02*
X12155539Y-13667388D01*
X12155539Y-13667388D02*
X12146015Y-13629293D01*
X12146015Y-13629293D02*
X12146015Y-13581674D01*
X12146015Y-13581674D02*
X12155539Y-13543579D01*
X12155539Y-13543579D02*
X12165063Y-13524531D01*
X12165063Y-13524531D02*
X12174586Y-13515008D01*
X12174586Y-13515008D02*
X12193634Y-13505484D01*
X12346015Y-13686436D02*
X12355539Y-13695960D01*
X12355539Y-13695960D02*
X12346015Y-13705484D01*
X12346015Y-13705484D02*
X12336491Y-13695960D01*
X12336491Y-13695960D02*
X12346015Y-13686436D01*
X12346015Y-13686436D02*
X12346015Y-13705484D01*
X12479348Y-13505484D02*
X12498396Y-13505484D01*
X12498396Y-13505484D02*
X12517444Y-13515008D01*
X12517444Y-13515008D02*
X12526967Y-13524531D01*
X12526967Y-13524531D02*
X12536491Y-13543579D01*
X12536491Y-13543579D02*
X12546015Y-13581674D01*
X12546015Y-13581674D02*
X12546015Y-13629293D01*
X12546015Y-13629293D02*
X12536491Y-13667388D01*
X12536491Y-13667388D02*
X12526967Y-13686436D01*
X12526967Y-13686436D02*
X12517444Y-13695960D01*
X12517444Y-13695960D02*
X12498396Y-13705484D01*
X12498396Y-13705484D02*
X12479348Y-13705484D01*
X12479348Y-13705484D02*
X12460301Y-13695960D01*
X12460301Y-13695960D02*
X12450777Y-13686436D01*
X12450777Y-13686436D02*
X12441253Y-13667388D01*
X12441253Y-13667388D02*
X12431729Y-13629293D01*
X12431729Y-13629293D02*
X12431729Y-13581674D01*
X12431729Y-13581674D02*
X12441253Y-13543579D01*
X12441253Y-13543579D02*
X12450777Y-13524531D01*
X12450777Y-13524531D02*
X12460301Y-13515008D01*
X12460301Y-13515008D02*
X12479348Y-13505484D01*
X12736491Y-13705484D02*
X12622206Y-13705484D01*
X12679348Y-13705484D02*
X12679348Y-13505484D01*
X12679348Y-13505484D02*
X12660301Y-13534055D01*
X12660301Y-13534055D02*
X12641253Y-13553103D01*
X12641253Y-13553103D02*
X12622206Y-13562627D01*
X12917444Y-13505484D02*
X12822206Y-13505484D01*
X12822206Y-13505484D02*
X12812682Y-13600722D01*
X12812682Y-13600722D02*
X12822206Y-13591198D01*
X12822206Y-13591198D02*
X12841253Y-13581674D01*
X12841253Y-13581674D02*
X12888872Y-13581674D01*
X12888872Y-13581674D02*
X12907920Y-13591198D01*
X12907920Y-13591198D02*
X12917444Y-13600722D01*
X12917444Y-13600722D02*
X12926967Y-13619769D01*
X12926967Y-13619769D02*
X12926967Y-13667388D01*
X12926967Y-13667388D02*
X12917444Y-13686436D01*
X12917444Y-13686436D02*
X12907920Y-13695960D01*
X12907920Y-13695960D02*
X12888872Y-13705484D01*
X12888872Y-13705484D02*
X12841253Y-13705484D01*
X12841253Y-13705484D02*
X12822206Y-13695960D01*
X12822206Y-13695960D02*
X12812682Y-13686436D01*
X12993634Y-13505484D02*
X13126967Y-13505484D01*
X13126967Y-13505484D02*
X13041253Y-13705484D01*
X13193634Y-13505484D02*
X13193634Y-13543579D01*
X13269825Y-13505484D02*
X13269825Y-13543579D01*
X13565063Y-13781674D02*
X13555539Y-13772150D01*
X13555539Y-13772150D02*
X13536491Y-13743579D01*
X13536491Y-13743579D02*
X13526968Y-13724531D01*
X13526968Y-13724531D02*
X13517444Y-13695960D01*
X13517444Y-13695960D02*
X13507920Y-13648341D01*
X13507920Y-13648341D02*
X13507920Y-13610246D01*
X13507920Y-13610246D02*
X13517444Y-13562627D01*
X13517444Y-13562627D02*
X13526968Y-13534055D01*
X13526968Y-13534055D02*
X13536491Y-13515008D01*
X13536491Y-13515008D02*
X13555539Y-13486436D01*
X13555539Y-13486436D02*
X13565063Y-13476912D01*
X13726968Y-13505484D02*
X13688872Y-13505484D01*
X13688872Y-13505484D02*
X13669825Y-13515008D01*
X13669825Y-13515008D02*
X13660301Y-13524531D01*
X13660301Y-13524531D02*
X13641253Y-13553103D01*
X13641253Y-13553103D02*
X13631729Y-13591198D01*
X13631729Y-13591198D02*
X13631729Y-13667388D01*
X13631729Y-13667388D02*
X13641253Y-13686436D01*
X13641253Y-13686436D02*
X13650777Y-13695960D01*
X13650777Y-13695960D02*
X13669825Y-13705484D01*
X13669825Y-13705484D02*
X13707920Y-13705484D01*
X13707920Y-13705484D02*
X13726968Y-13695960D01*
X13726968Y-13695960D02*
X13736491Y-13686436D01*
X13736491Y-13686436D02*
X13746015Y-13667388D01*
X13746015Y-13667388D02*
X13746015Y-13619769D01*
X13746015Y-13619769D02*
X13736491Y-13600722D01*
X13736491Y-13600722D02*
X13726968Y-13591198D01*
X13726968Y-13591198D02*
X13707920Y-13581674D01*
X13707920Y-13581674D02*
X13669825Y-13581674D01*
X13669825Y-13581674D02*
X13650777Y-13591198D01*
X13650777Y-13591198D02*
X13641253Y-13600722D01*
X13641253Y-13600722D02*
X13631729Y-13619769D01*
X13984110Y-13705484D02*
X13984110Y-13505484D01*
X14069825Y-13705484D02*
X14069825Y-13600722D01*
X14069825Y-13600722D02*
X14060301Y-13581674D01*
X14060301Y-13581674D02*
X14041253Y-13572150D01*
X14041253Y-13572150D02*
X14012682Y-13572150D01*
X14012682Y-13572150D02*
X13993634Y-13581674D01*
X13993634Y-13581674D02*
X13984110Y-13591198D01*
X14193634Y-13705484D02*
X14174587Y-13695960D01*
X14174587Y-13695960D02*
X14165063Y-13686436D01*
X14165063Y-13686436D02*
X14155539Y-13667388D01*
X14155539Y-13667388D02*
X14155539Y-13610246D01*
X14155539Y-13610246D02*
X14165063Y-13591198D01*
X14165063Y-13591198D02*
X14174587Y-13581674D01*
X14174587Y-13581674D02*
X14193634Y-13572150D01*
X14193634Y-13572150D02*
X14222206Y-13572150D01*
X14222206Y-13572150D02*
X14241253Y-13581674D01*
X14241253Y-13581674D02*
X14250777Y-13591198D01*
X14250777Y-13591198D02*
X14260301Y-13610246D01*
X14260301Y-13610246D02*
X14260301Y-13667388D01*
X14260301Y-13667388D02*
X14250777Y-13686436D01*
X14250777Y-13686436D02*
X14241253Y-13695960D01*
X14241253Y-13695960D02*
X14222206Y-13705484D01*
X14222206Y-13705484D02*
X14193634Y-13705484D01*
X14374587Y-13705484D02*
X14355539Y-13695960D01*
X14355539Y-13695960D02*
X14346015Y-13676912D01*
X14346015Y-13676912D02*
X14346015Y-13505484D01*
X14526968Y-13695960D02*
X14507920Y-13705484D01*
X14507920Y-13705484D02*
X14469825Y-13705484D01*
X14469825Y-13705484D02*
X14450777Y-13695960D01*
X14450777Y-13695960D02*
X14441253Y-13676912D01*
X14441253Y-13676912D02*
X14441253Y-13600722D01*
X14441253Y-13600722D02*
X14450777Y-13581674D01*
X14450777Y-13581674D02*
X14469825Y-13572150D01*
X14469825Y-13572150D02*
X14507920Y-13572150D01*
X14507920Y-13572150D02*
X14526968Y-13581674D01*
X14526968Y-13581674D02*
X14536491Y-13600722D01*
X14536491Y-13600722D02*
X14536491Y-13619769D01*
X14536491Y-13619769D02*
X14441253Y-13638817D01*
X14612682Y-13695960D02*
X14631730Y-13705484D01*
X14631730Y-13705484D02*
X14669825Y-13705484D01*
X14669825Y-13705484D02*
X14688872Y-13695960D01*
X14688872Y-13695960D02*
X14698396Y-13676912D01*
X14698396Y-13676912D02*
X14698396Y-13667388D01*
X14698396Y-13667388D02*
X14688872Y-13648341D01*
X14688872Y-13648341D02*
X14669825Y-13638817D01*
X14669825Y-13638817D02*
X14641253Y-13638817D01*
X14641253Y-13638817D02*
X14622206Y-13629293D01*
X14622206Y-13629293D02*
X14612682Y-13610246D01*
X14612682Y-13610246D02*
X14612682Y-13600722D01*
X14612682Y-13600722D02*
X14622206Y-13581674D01*
X14622206Y-13581674D02*
X14641253Y-13572150D01*
X14641253Y-13572150D02*
X14669825Y-13572150D01*
X14669825Y-13572150D02*
X14688872Y-13581674D01*
X14765063Y-13781674D02*
X14774587Y-13772150D01*
X14774587Y-13772150D02*
X14793634Y-13743579D01*
X14793634Y-13743579D02*
X14803158Y-13724531D01*
X14803158Y-13724531D02*
X14812682Y-13695960D01*
X14812682Y-13695960D02*
X14822206Y-13648341D01*
X14822206Y-13648341D02*
X14822206Y-13610246D01*
X14822206Y-13610246D02*
X14812682Y-13562627D01*
X14812682Y-13562627D02*
X14803158Y-13534055D01*
X14803158Y-13534055D02*
X14793634Y-13515008D01*
X14793634Y-13515008D02*
X14774587Y-13486436D01*
X14774587Y-13486436D02*
X14765063Y-13476912D01*
D11*
X9950000Y-13838000D02*
X9950000Y-13918000D01*
X9910000Y-13878000D02*
X9990000Y-13878000D01*
D10*
X10288872Y-13769484D02*
X10307920Y-13769484D01*
X10307920Y-13769484D02*
X10326967Y-13779008D01*
X10326967Y-13779008D02*
X10336491Y-13788531D01*
X10336491Y-13788531D02*
X10346015Y-13807579D01*
X10346015Y-13807579D02*
X10355539Y-13845674D01*
X10355539Y-13845674D02*
X10355539Y-13893293D01*
X10355539Y-13893293D02*
X10346015Y-13931388D01*
X10346015Y-13931388D02*
X10336491Y-13950436D01*
X10336491Y-13950436D02*
X10326967Y-13959960D01*
X10326967Y-13959960D02*
X10307920Y-13969484D01*
X10307920Y-13969484D02*
X10288872Y-13969484D01*
X10288872Y-13969484D02*
X10269824Y-13959960D01*
X10269824Y-13959960D02*
X10260301Y-13950436D01*
X10260301Y-13950436D02*
X10250777Y-13931388D01*
X10250777Y-13931388D02*
X10241253Y-13893293D01*
X10241253Y-13893293D02*
X10241253Y-13845674D01*
X10241253Y-13845674D02*
X10250777Y-13807579D01*
X10250777Y-13807579D02*
X10260301Y-13788531D01*
X10260301Y-13788531D02*
X10269824Y-13779008D01*
X10269824Y-13779008D02*
X10288872Y-13769484D01*
X10441253Y-13950436D02*
X10450777Y-13959960D01*
X10450777Y-13959960D02*
X10441253Y-13969484D01*
X10441253Y-13969484D02*
X10431729Y-13959960D01*
X10431729Y-13959960D02*
X10441253Y-13950436D01*
X10441253Y-13950436D02*
X10441253Y-13969484D01*
X10565063Y-13855198D02*
X10546015Y-13845674D01*
X10546015Y-13845674D02*
X10536491Y-13836150D01*
X10536491Y-13836150D02*
X10526967Y-13817103D01*
X10526967Y-13817103D02*
X10526967Y-13807579D01*
X10526967Y-13807579D02*
X10536491Y-13788531D01*
X10536491Y-13788531D02*
X10546015Y-13779008D01*
X10546015Y-13779008D02*
X10565063Y-13769484D01*
X10565063Y-13769484D02*
X10603158Y-13769484D01*
X10603158Y-13769484D02*
X10622205Y-13779008D01*
X10622205Y-13779008D02*
X10631729Y-13788531D01*
X10631729Y-13788531D02*
X10641253Y-13807579D01*
X10641253Y-13807579D02*
X10641253Y-13817103D01*
X10641253Y-13817103D02*
X10631729Y-13836150D01*
X10631729Y-13836150D02*
X10622205Y-13845674D01*
X10622205Y-13845674D02*
X10603158Y-13855198D01*
X10603158Y-13855198D02*
X10565063Y-13855198D01*
X10565063Y-13855198D02*
X10546015Y-13864722D01*
X10546015Y-13864722D02*
X10536491Y-13874246D01*
X10536491Y-13874246D02*
X10526967Y-13893293D01*
X10526967Y-13893293D02*
X10526967Y-13931388D01*
X10526967Y-13931388D02*
X10536491Y-13950436D01*
X10536491Y-13950436D02*
X10546015Y-13959960D01*
X10546015Y-13959960D02*
X10565063Y-13969484D01*
X10565063Y-13969484D02*
X10603158Y-13969484D01*
X10603158Y-13969484D02*
X10622205Y-13959960D01*
X10622205Y-13959960D02*
X10631729Y-13950436D01*
X10631729Y-13950436D02*
X10641253Y-13931388D01*
X10641253Y-13931388D02*
X10641253Y-13893293D01*
X10641253Y-13893293D02*
X10631729Y-13874246D01*
X10631729Y-13874246D02*
X10622205Y-13864722D01*
X10622205Y-13864722D02*
X10603158Y-13855198D01*
X10765063Y-13769484D02*
X10784110Y-13769484D01*
X10784110Y-13769484D02*
X10803158Y-13779008D01*
X10803158Y-13779008D02*
X10812682Y-13788531D01*
X10812682Y-13788531D02*
X10822205Y-13807579D01*
X10822205Y-13807579D02*
X10831729Y-13845674D01*
X10831729Y-13845674D02*
X10831729Y-13893293D01*
X10831729Y-13893293D02*
X10822205Y-13931388D01*
X10822205Y-13931388D02*
X10812682Y-13950436D01*
X10812682Y-13950436D02*
X10803158Y-13959960D01*
X10803158Y-13959960D02*
X10784110Y-13969484D01*
X10784110Y-13969484D02*
X10765063Y-13969484D01*
X10765063Y-13969484D02*
X10746015Y-13959960D01*
X10746015Y-13959960D02*
X10736491Y-13950436D01*
X10736491Y-13950436D02*
X10726967Y-13931388D01*
X10726967Y-13931388D02*
X10717444Y-13893293D01*
X10717444Y-13893293D02*
X10717444Y-13845674D01*
X10717444Y-13845674D02*
X10726967Y-13807579D01*
X10726967Y-13807579D02*
X10736491Y-13788531D01*
X10736491Y-13788531D02*
X10746015Y-13779008D01*
X10746015Y-13779008D02*
X10765063Y-13769484D01*
X10955539Y-13769484D02*
X10974586Y-13769484D01*
X10974586Y-13769484D02*
X10993634Y-13779008D01*
X10993634Y-13779008D02*
X11003158Y-13788531D01*
X11003158Y-13788531D02*
X11012682Y-13807579D01*
X11012682Y-13807579D02*
X11022205Y-13845674D01*
X11022205Y-13845674D02*
X11022205Y-13893293D01*
X11022205Y-13893293D02*
X11012682Y-13931388D01*
X11012682Y-13931388D02*
X11003158Y-13950436D01*
X11003158Y-13950436D02*
X10993634Y-13959960D01*
X10993634Y-13959960D02*
X10974586Y-13969484D01*
X10974586Y-13969484D02*
X10955539Y-13969484D01*
X10955539Y-13969484D02*
X10936491Y-13959960D01*
X10936491Y-13959960D02*
X10926967Y-13950436D01*
X10926967Y-13950436D02*
X10917444Y-13931388D01*
X10917444Y-13931388D02*
X10907920Y-13893293D01*
X10907920Y-13893293D02*
X10907920Y-13845674D01*
X10907920Y-13845674D02*
X10917444Y-13807579D01*
X10917444Y-13807579D02*
X10926967Y-13788531D01*
X10926967Y-13788531D02*
X10936491Y-13779008D01*
X10936491Y-13779008D02*
X10955539Y-13769484D01*
X11107920Y-13969484D02*
X11107920Y-13836150D01*
X11107920Y-13855198D02*
X11117444Y-13845674D01*
X11117444Y-13845674D02*
X11136491Y-13836150D01*
X11136491Y-13836150D02*
X11165063Y-13836150D01*
X11165063Y-13836150D02*
X11184110Y-13845674D01*
X11184110Y-13845674D02*
X11193634Y-13864722D01*
X11193634Y-13864722D02*
X11193634Y-13969484D01*
X11193634Y-13864722D02*
X11203158Y-13845674D01*
X11203158Y-13845674D02*
X11222205Y-13836150D01*
X11222205Y-13836150D02*
X11250777Y-13836150D01*
X11250777Y-13836150D02*
X11269824Y-13845674D01*
X11269824Y-13845674D02*
X11279348Y-13864722D01*
X11279348Y-13864722D02*
X11279348Y-13969484D01*
X11374586Y-13969484D02*
X11374586Y-13836150D01*
X11374586Y-13855198D02*
X11384110Y-13845674D01*
X11384110Y-13845674D02*
X11403158Y-13836150D01*
X11403158Y-13836150D02*
X11431729Y-13836150D01*
X11431729Y-13836150D02*
X11450777Y-13845674D01*
X11450777Y-13845674D02*
X11460301Y-13864722D01*
X11460301Y-13864722D02*
X11460301Y-13969484D01*
X11460301Y-13864722D02*
X11469824Y-13845674D01*
X11469824Y-13845674D02*
X11488872Y-13836150D01*
X11488872Y-13836150D02*
X11517443Y-13836150D01*
X11517443Y-13836150D02*
X11536491Y-13845674D01*
X11536491Y-13845674D02*
X11546015Y-13864722D01*
X11546015Y-13864722D02*
X11546015Y-13969484D01*
X11936491Y-13759960D02*
X11765063Y-14017103D01*
X12193634Y-13769484D02*
X12212682Y-13769484D01*
X12212682Y-13769484D02*
X12231729Y-13779008D01*
X12231729Y-13779008D02*
X12241253Y-13788531D01*
X12241253Y-13788531D02*
X12250777Y-13807579D01*
X12250777Y-13807579D02*
X12260301Y-13845674D01*
X12260301Y-13845674D02*
X12260301Y-13893293D01*
X12260301Y-13893293D02*
X12250777Y-13931388D01*
X12250777Y-13931388D02*
X12241253Y-13950436D01*
X12241253Y-13950436D02*
X12231729Y-13959960D01*
X12231729Y-13959960D02*
X12212682Y-13969484D01*
X12212682Y-13969484D02*
X12193634Y-13969484D01*
X12193634Y-13969484D02*
X12174586Y-13959960D01*
X12174586Y-13959960D02*
X12165063Y-13950436D01*
X12165063Y-13950436D02*
X12155539Y-13931388D01*
X12155539Y-13931388D02*
X12146015Y-13893293D01*
X12146015Y-13893293D02*
X12146015Y-13845674D01*
X12146015Y-13845674D02*
X12155539Y-13807579D01*
X12155539Y-13807579D02*
X12165063Y-13788531D01*
X12165063Y-13788531D02*
X12174586Y-13779008D01*
X12174586Y-13779008D02*
X12193634Y-13769484D01*
X12346015Y-13950436D02*
X12355539Y-13959960D01*
X12355539Y-13959960D02*
X12346015Y-13969484D01*
X12346015Y-13969484D02*
X12336491Y-13959960D01*
X12336491Y-13959960D02*
X12346015Y-13950436D01*
X12346015Y-13950436D02*
X12346015Y-13969484D01*
X12479348Y-13769484D02*
X12498396Y-13769484D01*
X12498396Y-13769484D02*
X12517444Y-13779008D01*
X12517444Y-13779008D02*
X12526967Y-13788531D01*
X12526967Y-13788531D02*
X12536491Y-13807579D01*
X12536491Y-13807579D02*
X12546015Y-13845674D01*
X12546015Y-13845674D02*
X12546015Y-13893293D01*
X12546015Y-13893293D02*
X12536491Y-13931388D01*
X12536491Y-13931388D02*
X12526967Y-13950436D01*
X12526967Y-13950436D02*
X12517444Y-13959960D01*
X12517444Y-13959960D02*
X12498396Y-13969484D01*
X12498396Y-13969484D02*
X12479348Y-13969484D01*
X12479348Y-13969484D02*
X12460301Y-13959960D01*
X12460301Y-13959960D02*
X12450777Y-13950436D01*
X12450777Y-13950436D02*
X12441253Y-13931388D01*
X12441253Y-13931388D02*
X12431729Y-13893293D01*
X12431729Y-13893293D02*
X12431729Y-13845674D01*
X12431729Y-13845674D02*
X12441253Y-13807579D01*
X12441253Y-13807579D02*
X12450777Y-13788531D01*
X12450777Y-13788531D02*
X12460301Y-13779008D01*
X12460301Y-13779008D02*
X12479348Y-13769484D01*
X12612682Y-13769484D02*
X12736491Y-13769484D01*
X12736491Y-13769484D02*
X12669825Y-13845674D01*
X12669825Y-13845674D02*
X12698396Y-13845674D01*
X12698396Y-13845674D02*
X12717444Y-13855198D01*
X12717444Y-13855198D02*
X12726967Y-13864722D01*
X12726967Y-13864722D02*
X12736491Y-13883769D01*
X12736491Y-13883769D02*
X12736491Y-13931388D01*
X12736491Y-13931388D02*
X12726967Y-13950436D01*
X12726967Y-13950436D02*
X12717444Y-13959960D01*
X12717444Y-13959960D02*
X12698396Y-13969484D01*
X12698396Y-13969484D02*
X12641253Y-13969484D01*
X12641253Y-13969484D02*
X12622206Y-13959960D01*
X12622206Y-13959960D02*
X12612682Y-13950436D01*
X12926967Y-13969484D02*
X12812682Y-13969484D01*
X12869825Y-13969484D02*
X12869825Y-13769484D01*
X12869825Y-13769484D02*
X12850777Y-13798055D01*
X12850777Y-13798055D02*
X12831729Y-13817103D01*
X12831729Y-13817103D02*
X12812682Y-13826627D01*
X13107920Y-13769484D02*
X13012682Y-13769484D01*
X13012682Y-13769484D02*
X13003158Y-13864722D01*
X13003158Y-13864722D02*
X13012682Y-13855198D01*
X13012682Y-13855198D02*
X13031729Y-13845674D01*
X13031729Y-13845674D02*
X13079348Y-13845674D01*
X13079348Y-13845674D02*
X13098396Y-13855198D01*
X13098396Y-13855198D02*
X13107920Y-13864722D01*
X13107920Y-13864722D02*
X13117444Y-13883769D01*
X13117444Y-13883769D02*
X13117444Y-13931388D01*
X13117444Y-13931388D02*
X13107920Y-13950436D01*
X13107920Y-13950436D02*
X13098396Y-13959960D01*
X13098396Y-13959960D02*
X13079348Y-13969484D01*
X13079348Y-13969484D02*
X13031729Y-13969484D01*
X13031729Y-13969484D02*
X13012682Y-13959960D01*
X13012682Y-13959960D02*
X13003158Y-13950436D01*
X13193634Y-13769484D02*
X13193634Y-13807579D01*
X13269825Y-13769484D02*
X13269825Y-13807579D01*
X13565063Y-14045674D02*
X13555539Y-14036150D01*
X13555539Y-14036150D02*
X13536491Y-14007579D01*
X13536491Y-14007579D02*
X13526968Y-13988531D01*
X13526968Y-13988531D02*
X13517444Y-13959960D01*
X13517444Y-13959960D02*
X13507920Y-13912341D01*
X13507920Y-13912341D02*
X13507920Y-13874246D01*
X13507920Y-13874246D02*
X13517444Y-13826627D01*
X13517444Y-13826627D02*
X13526968Y-13798055D01*
X13526968Y-13798055D02*
X13536491Y-13779008D01*
X13536491Y-13779008D02*
X13555539Y-13750436D01*
X13555539Y-13750436D02*
X13565063Y-13740912D01*
X13631729Y-13788531D02*
X13641253Y-13779008D01*
X13641253Y-13779008D02*
X13660301Y-13769484D01*
X13660301Y-13769484D02*
X13707920Y-13769484D01*
X13707920Y-13769484D02*
X13726968Y-13779008D01*
X13726968Y-13779008D02*
X13736491Y-13788531D01*
X13736491Y-13788531D02*
X13746015Y-13807579D01*
X13746015Y-13807579D02*
X13746015Y-13826627D01*
X13746015Y-13826627D02*
X13736491Y-13855198D01*
X13736491Y-13855198D02*
X13622206Y-13969484D01*
X13622206Y-13969484D02*
X13746015Y-13969484D01*
X13984110Y-13969484D02*
X13984110Y-13769484D01*
X14069825Y-13969484D02*
X14069825Y-13864722D01*
X14069825Y-13864722D02*
X14060301Y-13845674D01*
X14060301Y-13845674D02*
X14041253Y-13836150D01*
X14041253Y-13836150D02*
X14012682Y-13836150D01*
X14012682Y-13836150D02*
X13993634Y-13845674D01*
X13993634Y-13845674D02*
X13984110Y-13855198D01*
X14193634Y-13969484D02*
X14174587Y-13959960D01*
X14174587Y-13959960D02*
X14165063Y-13950436D01*
X14165063Y-13950436D02*
X14155539Y-13931388D01*
X14155539Y-13931388D02*
X14155539Y-13874246D01*
X14155539Y-13874246D02*
X14165063Y-13855198D01*
X14165063Y-13855198D02*
X14174587Y-13845674D01*
X14174587Y-13845674D02*
X14193634Y-13836150D01*
X14193634Y-13836150D02*
X14222206Y-13836150D01*
X14222206Y-13836150D02*
X14241253Y-13845674D01*
X14241253Y-13845674D02*
X14250777Y-13855198D01*
X14250777Y-13855198D02*
X14260301Y-13874246D01*
X14260301Y-13874246D02*
X14260301Y-13931388D01*
X14260301Y-13931388D02*
X14250777Y-13950436D01*
X14250777Y-13950436D02*
X14241253Y-13959960D01*
X14241253Y-13959960D02*
X14222206Y-13969484D01*
X14222206Y-13969484D02*
X14193634Y-13969484D01*
X14374587Y-13969484D02*
X14355539Y-13959960D01*
X14355539Y-13959960D02*
X14346015Y-13940912D01*
X14346015Y-13940912D02*
X14346015Y-13769484D01*
X14526968Y-13959960D02*
X14507920Y-13969484D01*
X14507920Y-13969484D02*
X14469825Y-13969484D01*
X14469825Y-13969484D02*
X14450777Y-13959960D01*
X14450777Y-13959960D02*
X14441253Y-13940912D01*
X14441253Y-13940912D02*
X14441253Y-13864722D01*
X14441253Y-13864722D02*
X14450777Y-13845674D01*
X14450777Y-13845674D02*
X14469825Y-13836150D01*
X14469825Y-13836150D02*
X14507920Y-13836150D01*
X14507920Y-13836150D02*
X14526968Y-13845674D01*
X14526968Y-13845674D02*
X14536491Y-13864722D01*
X14536491Y-13864722D02*
X14536491Y-13883769D01*
X14536491Y-13883769D02*
X14441253Y-13902817D01*
X14612682Y-13959960D02*
X14631730Y-13969484D01*
X14631730Y-13969484D02*
X14669825Y-13969484D01*
X14669825Y-13969484D02*
X14688872Y-13959960D01*
X14688872Y-13959960D02*
X14698396Y-13940912D01*
X14698396Y-13940912D02*
X14698396Y-13931388D01*
X14698396Y-13931388D02*
X14688872Y-13912341D01*
X14688872Y-13912341D02*
X14669825Y-13902817D01*
X14669825Y-13902817D02*
X14641253Y-13902817D01*
X14641253Y-13902817D02*
X14622206Y-13893293D01*
X14622206Y-13893293D02*
X14612682Y-13874246D01*
X14612682Y-13874246D02*
X14612682Y-13864722D01*
X14612682Y-13864722D02*
X14622206Y-13845674D01*
X14622206Y-13845674D02*
X14641253Y-13836150D01*
X14641253Y-13836150D02*
X14669825Y-13836150D01*
X14669825Y-13836150D02*
X14688872Y-13845674D01*
X14765063Y-14045674D02*
X14774587Y-14036150D01*
X14774587Y-14036150D02*
X14793634Y-14007579D01*
X14793634Y-14007579D02*
X14803158Y-13988531D01*
X14803158Y-13988531D02*
X14812682Y-13959960D01*
X14812682Y-13959960D02*
X14822206Y-13912341D01*
X14822206Y-13912341D02*
X14822206Y-13874246D01*
X14822206Y-13874246D02*
X14812682Y-13826627D01*
X14812682Y-13826627D02*
X14803158Y-13798055D01*
X14803158Y-13798055D02*
X14793634Y-13779008D01*
X14793634Y-13779008D02*
X14774587Y-13750436D01*
X14774587Y-13750436D02*
X14765063Y-13740912D01*
D11*
X9975356Y-14177356D02*
X9975356Y-14106644D01*
X9904644Y-14106644D01*
X9904644Y-14177356D01*
X9975356Y-14177356D01*
D10*
X10355539Y-14233484D02*
X10241253Y-14233484D01*
X10298396Y-14233484D02*
X10298396Y-14033484D01*
X10298396Y-14033484D02*
X10279348Y-14062055D01*
X10279348Y-14062055D02*
X10260301Y-14081103D01*
X10260301Y-14081103D02*
X10241253Y-14090627D01*
X10441253Y-14214436D02*
X10450777Y-14223960D01*
X10450777Y-14223960D02*
X10441253Y-14233484D01*
X10441253Y-14233484D02*
X10431729Y-14223960D01*
X10431729Y-14223960D02*
X10441253Y-14214436D01*
X10441253Y-14214436D02*
X10441253Y-14233484D01*
X10574586Y-14033484D02*
X10593634Y-14033484D01*
X10593634Y-14033484D02*
X10612682Y-14043008D01*
X10612682Y-14043008D02*
X10622205Y-14052531D01*
X10622205Y-14052531D02*
X10631729Y-14071579D01*
X10631729Y-14071579D02*
X10641253Y-14109674D01*
X10641253Y-14109674D02*
X10641253Y-14157293D01*
X10641253Y-14157293D02*
X10631729Y-14195388D01*
X10631729Y-14195388D02*
X10622205Y-14214436D01*
X10622205Y-14214436D02*
X10612682Y-14223960D01*
X10612682Y-14223960D02*
X10593634Y-14233484D01*
X10593634Y-14233484D02*
X10574586Y-14233484D01*
X10574586Y-14233484D02*
X10555539Y-14223960D01*
X10555539Y-14223960D02*
X10546015Y-14214436D01*
X10546015Y-14214436D02*
X10536491Y-14195388D01*
X10536491Y-14195388D02*
X10526967Y-14157293D01*
X10526967Y-14157293D02*
X10526967Y-14109674D01*
X10526967Y-14109674D02*
X10536491Y-14071579D01*
X10536491Y-14071579D02*
X10546015Y-14052531D01*
X10546015Y-14052531D02*
X10555539Y-14043008D01*
X10555539Y-14043008D02*
X10574586Y-14033484D01*
X10765063Y-14033484D02*
X10784110Y-14033484D01*
X10784110Y-14033484D02*
X10803158Y-14043008D01*
X10803158Y-14043008D02*
X10812682Y-14052531D01*
X10812682Y-14052531D02*
X10822205Y-14071579D01*
X10822205Y-14071579D02*
X10831729Y-14109674D01*
X10831729Y-14109674D02*
X10831729Y-14157293D01*
X10831729Y-14157293D02*
X10822205Y-14195388D01*
X10822205Y-14195388D02*
X10812682Y-14214436D01*
X10812682Y-14214436D02*
X10803158Y-14223960D01*
X10803158Y-14223960D02*
X10784110Y-14233484D01*
X10784110Y-14233484D02*
X10765063Y-14233484D01*
X10765063Y-14233484D02*
X10746015Y-14223960D01*
X10746015Y-14223960D02*
X10736491Y-14214436D01*
X10736491Y-14214436D02*
X10726967Y-14195388D01*
X10726967Y-14195388D02*
X10717444Y-14157293D01*
X10717444Y-14157293D02*
X10717444Y-14109674D01*
X10717444Y-14109674D02*
X10726967Y-14071579D01*
X10726967Y-14071579D02*
X10736491Y-14052531D01*
X10736491Y-14052531D02*
X10746015Y-14043008D01*
X10746015Y-14043008D02*
X10765063Y-14033484D01*
X10955539Y-14033484D02*
X10974586Y-14033484D01*
X10974586Y-14033484D02*
X10993634Y-14043008D01*
X10993634Y-14043008D02*
X11003158Y-14052531D01*
X11003158Y-14052531D02*
X11012682Y-14071579D01*
X11012682Y-14071579D02*
X11022205Y-14109674D01*
X11022205Y-14109674D02*
X11022205Y-14157293D01*
X11022205Y-14157293D02*
X11012682Y-14195388D01*
X11012682Y-14195388D02*
X11003158Y-14214436D01*
X11003158Y-14214436D02*
X10993634Y-14223960D01*
X10993634Y-14223960D02*
X10974586Y-14233484D01*
X10974586Y-14233484D02*
X10955539Y-14233484D01*
X10955539Y-14233484D02*
X10936491Y-14223960D01*
X10936491Y-14223960D02*
X10926967Y-14214436D01*
X10926967Y-14214436D02*
X10917444Y-14195388D01*
X10917444Y-14195388D02*
X10907920Y-14157293D01*
X10907920Y-14157293D02*
X10907920Y-14109674D01*
X10907920Y-14109674D02*
X10917444Y-14071579D01*
X10917444Y-14071579D02*
X10926967Y-14052531D01*
X10926967Y-14052531D02*
X10936491Y-14043008D01*
X10936491Y-14043008D02*
X10955539Y-14033484D01*
X11107920Y-14233484D02*
X11107920Y-14100150D01*
X11107920Y-14119198D02*
X11117444Y-14109674D01*
X11117444Y-14109674D02*
X11136491Y-14100150D01*
X11136491Y-14100150D02*
X11165063Y-14100150D01*
X11165063Y-14100150D02*
X11184110Y-14109674D01*
X11184110Y-14109674D02*
X11193634Y-14128722D01*
X11193634Y-14128722D02*
X11193634Y-14233484D01*
X11193634Y-14128722D02*
X11203158Y-14109674D01*
X11203158Y-14109674D02*
X11222205Y-14100150D01*
X11222205Y-14100150D02*
X11250777Y-14100150D01*
X11250777Y-14100150D02*
X11269824Y-14109674D01*
X11269824Y-14109674D02*
X11279348Y-14128722D01*
X11279348Y-14128722D02*
X11279348Y-14233484D01*
X11374586Y-14233484D02*
X11374586Y-14100150D01*
X11374586Y-14119198D02*
X11384110Y-14109674D01*
X11384110Y-14109674D02*
X11403158Y-14100150D01*
X11403158Y-14100150D02*
X11431729Y-14100150D01*
X11431729Y-14100150D02*
X11450777Y-14109674D01*
X11450777Y-14109674D02*
X11460301Y-14128722D01*
X11460301Y-14128722D02*
X11460301Y-14233484D01*
X11460301Y-14128722D02*
X11469824Y-14109674D01*
X11469824Y-14109674D02*
X11488872Y-14100150D01*
X11488872Y-14100150D02*
X11517443Y-14100150D01*
X11517443Y-14100150D02*
X11536491Y-14109674D01*
X11536491Y-14109674D02*
X11546015Y-14128722D01*
X11546015Y-14128722D02*
X11546015Y-14233484D01*
X11936491Y-14023960D02*
X11765063Y-14281103D01*
X12193634Y-14033484D02*
X12212682Y-14033484D01*
X12212682Y-14033484D02*
X12231729Y-14043008D01*
X12231729Y-14043008D02*
X12241253Y-14052531D01*
X12241253Y-14052531D02*
X12250777Y-14071579D01*
X12250777Y-14071579D02*
X12260301Y-14109674D01*
X12260301Y-14109674D02*
X12260301Y-14157293D01*
X12260301Y-14157293D02*
X12250777Y-14195388D01*
X12250777Y-14195388D02*
X12241253Y-14214436D01*
X12241253Y-14214436D02*
X12231729Y-14223960D01*
X12231729Y-14223960D02*
X12212682Y-14233484D01*
X12212682Y-14233484D02*
X12193634Y-14233484D01*
X12193634Y-14233484D02*
X12174586Y-14223960D01*
X12174586Y-14223960D02*
X12165063Y-14214436D01*
X12165063Y-14214436D02*
X12155539Y-14195388D01*
X12155539Y-14195388D02*
X12146015Y-14157293D01*
X12146015Y-14157293D02*
X12146015Y-14109674D01*
X12146015Y-14109674D02*
X12155539Y-14071579D01*
X12155539Y-14071579D02*
X12165063Y-14052531D01*
X12165063Y-14052531D02*
X12174586Y-14043008D01*
X12174586Y-14043008D02*
X12193634Y-14033484D01*
X12346015Y-14214436D02*
X12355539Y-14223960D01*
X12355539Y-14223960D02*
X12346015Y-14233484D01*
X12346015Y-14233484D02*
X12336491Y-14223960D01*
X12336491Y-14223960D02*
X12346015Y-14214436D01*
X12346015Y-14214436D02*
X12346015Y-14233484D01*
X12479348Y-14033484D02*
X12498396Y-14033484D01*
X12498396Y-14033484D02*
X12517444Y-14043008D01*
X12517444Y-14043008D02*
X12526967Y-14052531D01*
X12526967Y-14052531D02*
X12536491Y-14071579D01*
X12536491Y-14071579D02*
X12546015Y-14109674D01*
X12546015Y-14109674D02*
X12546015Y-14157293D01*
X12546015Y-14157293D02*
X12536491Y-14195388D01*
X12536491Y-14195388D02*
X12526967Y-14214436D01*
X12526967Y-14214436D02*
X12517444Y-14223960D01*
X12517444Y-14223960D02*
X12498396Y-14233484D01*
X12498396Y-14233484D02*
X12479348Y-14233484D01*
X12479348Y-14233484D02*
X12460301Y-14223960D01*
X12460301Y-14223960D02*
X12450777Y-14214436D01*
X12450777Y-14214436D02*
X12441253Y-14195388D01*
X12441253Y-14195388D02*
X12431729Y-14157293D01*
X12431729Y-14157293D02*
X12431729Y-14109674D01*
X12431729Y-14109674D02*
X12441253Y-14071579D01*
X12441253Y-14071579D02*
X12450777Y-14052531D01*
X12450777Y-14052531D02*
X12460301Y-14043008D01*
X12460301Y-14043008D02*
X12479348Y-14033484D01*
X12612682Y-14033484D02*
X12736491Y-14033484D01*
X12736491Y-14033484D02*
X12669825Y-14109674D01*
X12669825Y-14109674D02*
X12698396Y-14109674D01*
X12698396Y-14109674D02*
X12717444Y-14119198D01*
X12717444Y-14119198D02*
X12726967Y-14128722D01*
X12726967Y-14128722D02*
X12736491Y-14147769D01*
X12736491Y-14147769D02*
X12736491Y-14195388D01*
X12736491Y-14195388D02*
X12726967Y-14214436D01*
X12726967Y-14214436D02*
X12717444Y-14223960D01*
X12717444Y-14223960D02*
X12698396Y-14233484D01*
X12698396Y-14233484D02*
X12641253Y-14233484D01*
X12641253Y-14233484D02*
X12622206Y-14223960D01*
X12622206Y-14223960D02*
X12612682Y-14214436D01*
X12831729Y-14233484D02*
X12869825Y-14233484D01*
X12869825Y-14233484D02*
X12888872Y-14223960D01*
X12888872Y-14223960D02*
X12898396Y-14214436D01*
X12898396Y-14214436D02*
X12917444Y-14185865D01*
X12917444Y-14185865D02*
X12926967Y-14147769D01*
X12926967Y-14147769D02*
X12926967Y-14071579D01*
X12926967Y-14071579D02*
X12917444Y-14052531D01*
X12917444Y-14052531D02*
X12907920Y-14043008D01*
X12907920Y-14043008D02*
X12888872Y-14033484D01*
X12888872Y-14033484D02*
X12850777Y-14033484D01*
X12850777Y-14033484D02*
X12831729Y-14043008D01*
X12831729Y-14043008D02*
X12822206Y-14052531D01*
X12822206Y-14052531D02*
X12812682Y-14071579D01*
X12812682Y-14071579D02*
X12812682Y-14119198D01*
X12812682Y-14119198D02*
X12822206Y-14138246D01*
X12822206Y-14138246D02*
X12831729Y-14147769D01*
X12831729Y-14147769D02*
X12850777Y-14157293D01*
X12850777Y-14157293D02*
X12888872Y-14157293D01*
X12888872Y-14157293D02*
X12907920Y-14147769D01*
X12907920Y-14147769D02*
X12917444Y-14138246D01*
X12917444Y-14138246D02*
X12926967Y-14119198D01*
X13098396Y-14100150D02*
X13098396Y-14233484D01*
X13050777Y-14023960D02*
X13003158Y-14166817D01*
X13003158Y-14166817D02*
X13126967Y-14166817D01*
X13193634Y-14033484D02*
X13193634Y-14071579D01*
X13269825Y-14033484D02*
X13269825Y-14071579D01*
X13565063Y-14309674D02*
X13555539Y-14300150D01*
X13555539Y-14300150D02*
X13536491Y-14271579D01*
X13536491Y-14271579D02*
X13526968Y-14252531D01*
X13526968Y-14252531D02*
X13517444Y-14223960D01*
X13517444Y-14223960D02*
X13507920Y-14176341D01*
X13507920Y-14176341D02*
X13507920Y-14138246D01*
X13507920Y-14138246D02*
X13517444Y-14090627D01*
X13517444Y-14090627D02*
X13526968Y-14062055D01*
X13526968Y-14062055D02*
X13536491Y-14043008D01*
X13536491Y-14043008D02*
X13555539Y-14014436D01*
X13555539Y-14014436D02*
X13565063Y-14004912D01*
X13726968Y-14033484D02*
X13688872Y-14033484D01*
X13688872Y-14033484D02*
X13669825Y-14043008D01*
X13669825Y-14043008D02*
X13660301Y-14052531D01*
X13660301Y-14052531D02*
X13641253Y-14081103D01*
X13641253Y-14081103D02*
X13631729Y-14119198D01*
X13631729Y-14119198D02*
X13631729Y-14195388D01*
X13631729Y-14195388D02*
X13641253Y-14214436D01*
X13641253Y-14214436D02*
X13650777Y-14223960D01*
X13650777Y-14223960D02*
X13669825Y-14233484D01*
X13669825Y-14233484D02*
X13707920Y-14233484D01*
X13707920Y-14233484D02*
X13726968Y-14223960D01*
X13726968Y-14223960D02*
X13736491Y-14214436D01*
X13736491Y-14214436D02*
X13746015Y-14195388D01*
X13746015Y-14195388D02*
X13746015Y-14147769D01*
X13746015Y-14147769D02*
X13736491Y-14128722D01*
X13736491Y-14128722D02*
X13726968Y-14119198D01*
X13726968Y-14119198D02*
X13707920Y-14109674D01*
X13707920Y-14109674D02*
X13669825Y-14109674D01*
X13669825Y-14109674D02*
X13650777Y-14119198D01*
X13650777Y-14119198D02*
X13641253Y-14128722D01*
X13641253Y-14128722D02*
X13631729Y-14147769D01*
X13984110Y-14233484D02*
X13984110Y-14033484D01*
X14069825Y-14233484D02*
X14069825Y-14128722D01*
X14069825Y-14128722D02*
X14060301Y-14109674D01*
X14060301Y-14109674D02*
X14041253Y-14100150D01*
X14041253Y-14100150D02*
X14012682Y-14100150D01*
X14012682Y-14100150D02*
X13993634Y-14109674D01*
X13993634Y-14109674D02*
X13984110Y-14119198D01*
X14193634Y-14233484D02*
X14174587Y-14223960D01*
X14174587Y-14223960D02*
X14165063Y-14214436D01*
X14165063Y-14214436D02*
X14155539Y-14195388D01*
X14155539Y-14195388D02*
X14155539Y-14138246D01*
X14155539Y-14138246D02*
X14165063Y-14119198D01*
X14165063Y-14119198D02*
X14174587Y-14109674D01*
X14174587Y-14109674D02*
X14193634Y-14100150D01*
X14193634Y-14100150D02*
X14222206Y-14100150D01*
X14222206Y-14100150D02*
X14241253Y-14109674D01*
X14241253Y-14109674D02*
X14250777Y-14119198D01*
X14250777Y-14119198D02*
X14260301Y-14138246D01*
X14260301Y-14138246D02*
X14260301Y-14195388D01*
X14260301Y-14195388D02*
X14250777Y-14214436D01*
X14250777Y-14214436D02*
X14241253Y-14223960D01*
X14241253Y-14223960D02*
X14222206Y-14233484D01*
X14222206Y-14233484D02*
X14193634Y-14233484D01*
X14374587Y-14233484D02*
X14355539Y-14223960D01*
X14355539Y-14223960D02*
X14346015Y-14204912D01*
X14346015Y-14204912D02*
X14346015Y-14033484D01*
X14526968Y-14223960D02*
X14507920Y-14233484D01*
X14507920Y-14233484D02*
X14469825Y-14233484D01*
X14469825Y-14233484D02*
X14450777Y-14223960D01*
X14450777Y-14223960D02*
X14441253Y-14204912D01*
X14441253Y-14204912D02*
X14441253Y-14128722D01*
X14441253Y-14128722D02*
X14450777Y-14109674D01*
X14450777Y-14109674D02*
X14469825Y-14100150D01*
X14469825Y-14100150D02*
X14507920Y-14100150D01*
X14507920Y-14100150D02*
X14526968Y-14109674D01*
X14526968Y-14109674D02*
X14536491Y-14128722D01*
X14536491Y-14128722D02*
X14536491Y-14147769D01*
X14536491Y-14147769D02*
X14441253Y-14166817D01*
X14612682Y-14223960D02*
X14631730Y-14233484D01*
X14631730Y-14233484D02*
X14669825Y-14233484D01*
X14669825Y-14233484D02*
X14688872Y-14223960D01*
X14688872Y-14223960D02*
X14698396Y-14204912D01*
X14698396Y-14204912D02*
X14698396Y-14195388D01*
X14698396Y-14195388D02*
X14688872Y-14176341D01*
X14688872Y-14176341D02*
X14669825Y-14166817D01*
X14669825Y-14166817D02*
X14641253Y-14166817D01*
X14641253Y-14166817D02*
X14622206Y-14157293D01*
X14622206Y-14157293D02*
X14612682Y-14138246D01*
X14612682Y-14138246D02*
X14612682Y-14128722D01*
X14612682Y-14128722D02*
X14622206Y-14109674D01*
X14622206Y-14109674D02*
X14641253Y-14100150D01*
X14641253Y-14100150D02*
X14669825Y-14100150D01*
X14669825Y-14100150D02*
X14688872Y-14109674D01*
X14765063Y-14309674D02*
X14774587Y-14300150D01*
X14774587Y-14300150D02*
X14793634Y-14271579D01*
X14793634Y-14271579D02*
X14803158Y-14252531D01*
X14803158Y-14252531D02*
X14812682Y-14223960D01*
X14812682Y-14223960D02*
X14822206Y-14176341D01*
X14822206Y-14176341D02*
X14822206Y-14138246D01*
X14822206Y-14138246D02*
X14812682Y-14090627D01*
X14812682Y-14090627D02*
X14803158Y-14062055D01*
X14803158Y-14062055D02*
X14793634Y-14043008D01*
X14793634Y-14043008D02*
X14774587Y-14014436D01*
X14774587Y-14014436D02*
X14765063Y-14004912D01*
D12*
X9914000Y-14482000D02*
X9990000Y-14406000D01*
X9914000Y-14330000D01*
X9838000Y-14406000D01*
X9914000Y-14482000D01*
D10*
X10355539Y-14497484D02*
X10241253Y-14497484D01*
X10298396Y-14497484D02*
X10298396Y-14297484D01*
X10298396Y-14297484D02*
X10279348Y-14326055D01*
X10279348Y-14326055D02*
X10260301Y-14345103D01*
X10260301Y-14345103D02*
X10241253Y-14354627D01*
X10441253Y-14478436D02*
X10450777Y-14487960D01*
X10450777Y-14487960D02*
X10441253Y-14497484D01*
X10441253Y-14497484D02*
X10431729Y-14487960D01*
X10431729Y-14487960D02*
X10441253Y-14478436D01*
X10441253Y-14478436D02*
X10441253Y-14497484D01*
X10631729Y-14297484D02*
X10536491Y-14297484D01*
X10536491Y-14297484D02*
X10526967Y-14392722D01*
X10526967Y-14392722D02*
X10536491Y-14383198D01*
X10536491Y-14383198D02*
X10555539Y-14373674D01*
X10555539Y-14373674D02*
X10603158Y-14373674D01*
X10603158Y-14373674D02*
X10622205Y-14383198D01*
X10622205Y-14383198D02*
X10631729Y-14392722D01*
X10631729Y-14392722D02*
X10641253Y-14411769D01*
X10641253Y-14411769D02*
X10641253Y-14459388D01*
X10641253Y-14459388D02*
X10631729Y-14478436D01*
X10631729Y-14478436D02*
X10622205Y-14487960D01*
X10622205Y-14487960D02*
X10603158Y-14497484D01*
X10603158Y-14497484D02*
X10555539Y-14497484D01*
X10555539Y-14497484D02*
X10536491Y-14487960D01*
X10536491Y-14487960D02*
X10526967Y-14478436D01*
X10717444Y-14316531D02*
X10726967Y-14307008D01*
X10726967Y-14307008D02*
X10746015Y-14297484D01*
X10746015Y-14297484D02*
X10793634Y-14297484D01*
X10793634Y-14297484D02*
X10812682Y-14307008D01*
X10812682Y-14307008D02*
X10822205Y-14316531D01*
X10822205Y-14316531D02*
X10831729Y-14335579D01*
X10831729Y-14335579D02*
X10831729Y-14354627D01*
X10831729Y-14354627D02*
X10822205Y-14383198D01*
X10822205Y-14383198D02*
X10707920Y-14497484D01*
X10707920Y-14497484D02*
X10831729Y-14497484D01*
X10955539Y-14297484D02*
X10974586Y-14297484D01*
X10974586Y-14297484D02*
X10993634Y-14307008D01*
X10993634Y-14307008D02*
X11003158Y-14316531D01*
X11003158Y-14316531D02*
X11012682Y-14335579D01*
X11012682Y-14335579D02*
X11022205Y-14373674D01*
X11022205Y-14373674D02*
X11022205Y-14421293D01*
X11022205Y-14421293D02*
X11012682Y-14459388D01*
X11012682Y-14459388D02*
X11003158Y-14478436D01*
X11003158Y-14478436D02*
X10993634Y-14487960D01*
X10993634Y-14487960D02*
X10974586Y-14497484D01*
X10974586Y-14497484D02*
X10955539Y-14497484D01*
X10955539Y-14497484D02*
X10936491Y-14487960D01*
X10936491Y-14487960D02*
X10926967Y-14478436D01*
X10926967Y-14478436D02*
X10917444Y-14459388D01*
X10917444Y-14459388D02*
X10907920Y-14421293D01*
X10907920Y-14421293D02*
X10907920Y-14373674D01*
X10907920Y-14373674D02*
X10917444Y-14335579D01*
X10917444Y-14335579D02*
X10926967Y-14316531D01*
X10926967Y-14316531D02*
X10936491Y-14307008D01*
X10936491Y-14307008D02*
X10955539Y-14297484D01*
X11107920Y-14497484D02*
X11107920Y-14364150D01*
X11107920Y-14383198D02*
X11117444Y-14373674D01*
X11117444Y-14373674D02*
X11136491Y-14364150D01*
X11136491Y-14364150D02*
X11165063Y-14364150D01*
X11165063Y-14364150D02*
X11184110Y-14373674D01*
X11184110Y-14373674D02*
X11193634Y-14392722D01*
X11193634Y-14392722D02*
X11193634Y-14497484D01*
X11193634Y-14392722D02*
X11203158Y-14373674D01*
X11203158Y-14373674D02*
X11222205Y-14364150D01*
X11222205Y-14364150D02*
X11250777Y-14364150D01*
X11250777Y-14364150D02*
X11269824Y-14373674D01*
X11269824Y-14373674D02*
X11279348Y-14392722D01*
X11279348Y-14392722D02*
X11279348Y-14497484D01*
X11374586Y-14497484D02*
X11374586Y-14364150D01*
X11374586Y-14383198D02*
X11384110Y-14373674D01*
X11384110Y-14373674D02*
X11403158Y-14364150D01*
X11403158Y-14364150D02*
X11431729Y-14364150D01*
X11431729Y-14364150D02*
X11450777Y-14373674D01*
X11450777Y-14373674D02*
X11460301Y-14392722D01*
X11460301Y-14392722D02*
X11460301Y-14497484D01*
X11460301Y-14392722D02*
X11469824Y-14373674D01*
X11469824Y-14373674D02*
X11488872Y-14364150D01*
X11488872Y-14364150D02*
X11517443Y-14364150D01*
X11517443Y-14364150D02*
X11536491Y-14373674D01*
X11536491Y-14373674D02*
X11546015Y-14392722D01*
X11546015Y-14392722D02*
X11546015Y-14497484D01*
X11936491Y-14287960D02*
X11765063Y-14545103D01*
X12193634Y-14297484D02*
X12212682Y-14297484D01*
X12212682Y-14297484D02*
X12231729Y-14307008D01*
X12231729Y-14307008D02*
X12241253Y-14316531D01*
X12241253Y-14316531D02*
X12250777Y-14335579D01*
X12250777Y-14335579D02*
X12260301Y-14373674D01*
X12260301Y-14373674D02*
X12260301Y-14421293D01*
X12260301Y-14421293D02*
X12250777Y-14459388D01*
X12250777Y-14459388D02*
X12241253Y-14478436D01*
X12241253Y-14478436D02*
X12231729Y-14487960D01*
X12231729Y-14487960D02*
X12212682Y-14497484D01*
X12212682Y-14497484D02*
X12193634Y-14497484D01*
X12193634Y-14497484D02*
X12174586Y-14487960D01*
X12174586Y-14487960D02*
X12165063Y-14478436D01*
X12165063Y-14478436D02*
X12155539Y-14459388D01*
X12155539Y-14459388D02*
X12146015Y-14421293D01*
X12146015Y-14421293D02*
X12146015Y-14373674D01*
X12146015Y-14373674D02*
X12155539Y-14335579D01*
X12155539Y-14335579D02*
X12165063Y-14316531D01*
X12165063Y-14316531D02*
X12174586Y-14307008D01*
X12174586Y-14307008D02*
X12193634Y-14297484D01*
X12346015Y-14478436D02*
X12355539Y-14487960D01*
X12355539Y-14487960D02*
X12346015Y-14497484D01*
X12346015Y-14497484D02*
X12336491Y-14487960D01*
X12336491Y-14487960D02*
X12346015Y-14478436D01*
X12346015Y-14478436D02*
X12346015Y-14497484D01*
X12479348Y-14297484D02*
X12498396Y-14297484D01*
X12498396Y-14297484D02*
X12517444Y-14307008D01*
X12517444Y-14307008D02*
X12526967Y-14316531D01*
X12526967Y-14316531D02*
X12536491Y-14335579D01*
X12536491Y-14335579D02*
X12546015Y-14373674D01*
X12546015Y-14373674D02*
X12546015Y-14421293D01*
X12546015Y-14421293D02*
X12536491Y-14459388D01*
X12536491Y-14459388D02*
X12526967Y-14478436D01*
X12526967Y-14478436D02*
X12517444Y-14487960D01*
X12517444Y-14487960D02*
X12498396Y-14497484D01*
X12498396Y-14497484D02*
X12479348Y-14497484D01*
X12479348Y-14497484D02*
X12460301Y-14487960D01*
X12460301Y-14487960D02*
X12450777Y-14478436D01*
X12450777Y-14478436D02*
X12441253Y-14459388D01*
X12441253Y-14459388D02*
X12431729Y-14421293D01*
X12431729Y-14421293D02*
X12431729Y-14373674D01*
X12431729Y-14373674D02*
X12441253Y-14335579D01*
X12441253Y-14335579D02*
X12450777Y-14316531D01*
X12450777Y-14316531D02*
X12460301Y-14307008D01*
X12460301Y-14307008D02*
X12479348Y-14297484D01*
X12726967Y-14297484D02*
X12631729Y-14297484D01*
X12631729Y-14297484D02*
X12622206Y-14392722D01*
X12622206Y-14392722D02*
X12631729Y-14383198D01*
X12631729Y-14383198D02*
X12650777Y-14373674D01*
X12650777Y-14373674D02*
X12698396Y-14373674D01*
X12698396Y-14373674D02*
X12717444Y-14383198D01*
X12717444Y-14383198D02*
X12726967Y-14392722D01*
X12726967Y-14392722D02*
X12736491Y-14411769D01*
X12736491Y-14411769D02*
X12736491Y-14459388D01*
X12736491Y-14459388D02*
X12726967Y-14478436D01*
X12726967Y-14478436D02*
X12717444Y-14487960D01*
X12717444Y-14487960D02*
X12698396Y-14497484D01*
X12698396Y-14497484D02*
X12650777Y-14497484D01*
X12650777Y-14497484D02*
X12631729Y-14487960D01*
X12631729Y-14487960D02*
X12622206Y-14478436D01*
X12831729Y-14497484D02*
X12869825Y-14497484D01*
X12869825Y-14497484D02*
X12888872Y-14487960D01*
X12888872Y-14487960D02*
X12898396Y-14478436D01*
X12898396Y-14478436D02*
X12917444Y-14449865D01*
X12917444Y-14449865D02*
X12926967Y-14411769D01*
X12926967Y-14411769D02*
X12926967Y-14335579D01*
X12926967Y-14335579D02*
X12917444Y-14316531D01*
X12917444Y-14316531D02*
X12907920Y-14307008D01*
X12907920Y-14307008D02*
X12888872Y-14297484D01*
X12888872Y-14297484D02*
X12850777Y-14297484D01*
X12850777Y-14297484D02*
X12831729Y-14307008D01*
X12831729Y-14307008D02*
X12822206Y-14316531D01*
X12822206Y-14316531D02*
X12812682Y-14335579D01*
X12812682Y-14335579D02*
X12812682Y-14383198D01*
X12812682Y-14383198D02*
X12822206Y-14402246D01*
X12822206Y-14402246D02*
X12831729Y-14411769D01*
X12831729Y-14411769D02*
X12850777Y-14421293D01*
X12850777Y-14421293D02*
X12888872Y-14421293D01*
X12888872Y-14421293D02*
X12907920Y-14411769D01*
X12907920Y-14411769D02*
X12917444Y-14402246D01*
X12917444Y-14402246D02*
X12926967Y-14383198D01*
X13041253Y-14383198D02*
X13022206Y-14373674D01*
X13022206Y-14373674D02*
X13012682Y-14364150D01*
X13012682Y-14364150D02*
X13003158Y-14345103D01*
X13003158Y-14345103D02*
X13003158Y-14335579D01*
X13003158Y-14335579D02*
X13012682Y-14316531D01*
X13012682Y-14316531D02*
X13022206Y-14307008D01*
X13022206Y-14307008D02*
X13041253Y-14297484D01*
X13041253Y-14297484D02*
X13079348Y-14297484D01*
X13079348Y-14297484D02*
X13098396Y-14307008D01*
X13098396Y-14307008D02*
X13107920Y-14316531D01*
X13107920Y-14316531D02*
X13117444Y-14335579D01*
X13117444Y-14335579D02*
X13117444Y-14345103D01*
X13117444Y-14345103D02*
X13107920Y-14364150D01*
X13107920Y-14364150D02*
X13098396Y-14373674D01*
X13098396Y-14373674D02*
X13079348Y-14383198D01*
X13079348Y-14383198D02*
X13041253Y-14383198D01*
X13041253Y-14383198D02*
X13022206Y-14392722D01*
X13022206Y-14392722D02*
X13012682Y-14402246D01*
X13012682Y-14402246D02*
X13003158Y-14421293D01*
X13003158Y-14421293D02*
X13003158Y-14459388D01*
X13003158Y-14459388D02*
X13012682Y-14478436D01*
X13012682Y-14478436D02*
X13022206Y-14487960D01*
X13022206Y-14487960D02*
X13041253Y-14497484D01*
X13041253Y-14497484D02*
X13079348Y-14497484D01*
X13079348Y-14497484D02*
X13098396Y-14487960D01*
X13098396Y-14487960D02*
X13107920Y-14478436D01*
X13107920Y-14478436D02*
X13117444Y-14459388D01*
X13117444Y-14459388D02*
X13117444Y-14421293D01*
X13117444Y-14421293D02*
X13107920Y-14402246D01*
X13107920Y-14402246D02*
X13098396Y-14392722D01*
X13098396Y-14392722D02*
X13079348Y-14383198D01*
X13193634Y-14297484D02*
X13193634Y-14335579D01*
X13269825Y-14297484D02*
X13269825Y-14335579D01*
X13565063Y-14573674D02*
X13555539Y-14564150D01*
X13555539Y-14564150D02*
X13536491Y-14535579D01*
X13536491Y-14535579D02*
X13526968Y-14516531D01*
X13526968Y-14516531D02*
X13517444Y-14487960D01*
X13517444Y-14487960D02*
X13507920Y-14440341D01*
X13507920Y-14440341D02*
X13507920Y-14402246D01*
X13507920Y-14402246D02*
X13517444Y-14354627D01*
X13517444Y-14354627D02*
X13526968Y-14326055D01*
X13526968Y-14326055D02*
X13536491Y-14307008D01*
X13536491Y-14307008D02*
X13555539Y-14278436D01*
X13555539Y-14278436D02*
X13565063Y-14268912D01*
X13726968Y-14364150D02*
X13726968Y-14497484D01*
X13679348Y-14287960D02*
X13631729Y-14430817D01*
X13631729Y-14430817D02*
X13755539Y-14430817D01*
X13984110Y-14497484D02*
X13984110Y-14297484D01*
X14069825Y-14497484D02*
X14069825Y-14392722D01*
X14069825Y-14392722D02*
X14060301Y-14373674D01*
X14060301Y-14373674D02*
X14041253Y-14364150D01*
X14041253Y-14364150D02*
X14012682Y-14364150D01*
X14012682Y-14364150D02*
X13993634Y-14373674D01*
X13993634Y-14373674D02*
X13984110Y-14383198D01*
X14193634Y-14497484D02*
X14174587Y-14487960D01*
X14174587Y-14487960D02*
X14165063Y-14478436D01*
X14165063Y-14478436D02*
X14155539Y-14459388D01*
X14155539Y-14459388D02*
X14155539Y-14402246D01*
X14155539Y-14402246D02*
X14165063Y-14383198D01*
X14165063Y-14383198D02*
X14174587Y-14373674D01*
X14174587Y-14373674D02*
X14193634Y-14364150D01*
X14193634Y-14364150D02*
X14222206Y-14364150D01*
X14222206Y-14364150D02*
X14241253Y-14373674D01*
X14241253Y-14373674D02*
X14250777Y-14383198D01*
X14250777Y-14383198D02*
X14260301Y-14402246D01*
X14260301Y-14402246D02*
X14260301Y-14459388D01*
X14260301Y-14459388D02*
X14250777Y-14478436D01*
X14250777Y-14478436D02*
X14241253Y-14487960D01*
X14241253Y-14487960D02*
X14222206Y-14497484D01*
X14222206Y-14497484D02*
X14193634Y-14497484D01*
X14374587Y-14497484D02*
X14355539Y-14487960D01*
X14355539Y-14487960D02*
X14346015Y-14468912D01*
X14346015Y-14468912D02*
X14346015Y-14297484D01*
X14526968Y-14487960D02*
X14507920Y-14497484D01*
X14507920Y-14497484D02*
X14469825Y-14497484D01*
X14469825Y-14497484D02*
X14450777Y-14487960D01*
X14450777Y-14487960D02*
X14441253Y-14468912D01*
X14441253Y-14468912D02*
X14441253Y-14392722D01*
X14441253Y-14392722D02*
X14450777Y-14373674D01*
X14450777Y-14373674D02*
X14469825Y-14364150D01*
X14469825Y-14364150D02*
X14507920Y-14364150D01*
X14507920Y-14364150D02*
X14526968Y-14373674D01*
X14526968Y-14373674D02*
X14536491Y-14392722D01*
X14536491Y-14392722D02*
X14536491Y-14411769D01*
X14536491Y-14411769D02*
X14441253Y-14430817D01*
X14612682Y-14487960D02*
X14631730Y-14497484D01*
X14631730Y-14497484D02*
X14669825Y-14497484D01*
X14669825Y-14497484D02*
X14688872Y-14487960D01*
X14688872Y-14487960D02*
X14698396Y-14468912D01*
X14698396Y-14468912D02*
X14698396Y-14459388D01*
X14698396Y-14459388D02*
X14688872Y-14440341D01*
X14688872Y-14440341D02*
X14669825Y-14430817D01*
X14669825Y-14430817D02*
X14641253Y-14430817D01*
X14641253Y-14430817D02*
X14622206Y-14421293D01*
X14622206Y-14421293D02*
X14612682Y-14402246D01*
X14612682Y-14402246D02*
X14612682Y-14392722D01*
X14612682Y-14392722D02*
X14622206Y-14373674D01*
X14622206Y-14373674D02*
X14641253Y-14364150D01*
X14641253Y-14364150D02*
X14669825Y-14364150D01*
X14669825Y-14364150D02*
X14688872Y-14373674D01*
X14765063Y-14573674D02*
X14774587Y-14564150D01*
X14774587Y-14564150D02*
X14793634Y-14535579D01*
X14793634Y-14535579D02*
X14803158Y-14516531D01*
X14803158Y-14516531D02*
X14812682Y-14487960D01*
X14812682Y-14487960D02*
X14822206Y-14440341D01*
X14822206Y-14440341D02*
X14822206Y-14402246D01*
X14822206Y-14402246D02*
X14812682Y-14354627D01*
X14812682Y-14354627D02*
X14803158Y-14326055D01*
X14803158Y-14326055D02*
X14793634Y-14307008D01*
X14793634Y-14307008D02*
X14774587Y-14278436D01*
X14774587Y-14278436D02*
X14765063Y-14268912D01*
M02*
