%TF.GenerationSoftware,KiCad,Pcbnew,7.0.10-7.0.10~ubuntu22.04.1*%
%TF.CreationDate,2024-01-16T23:48:33+08:00*%
%TF.ProjectId,EL_oscillator,454c5f6f-7363-4696-9c6c-61746f722e6b,rev?*%
%TF.SameCoordinates,Original*%
%TF.FileFunction,Drillmap*%
%TF.FilePolarity,Positive*%
%FSLAX45Y45*%
G04 Gerber Fmt 4.5, Leading zero omitted, Abs format (unit mm)*
G04 Created by KiCad (PCBNEW 7.0.10-7.0.10~ubuntu22.04.1) date 2024-01-16 23:48:33*
%MOMM*%
%LPD*%
G01*
G04 APERTURE LIST*
%ADD10C,0.200000*%
G04 APERTURE END LIST*
D10*
X10000000Y-10000000D02*
X12200000Y-10000000D01*
X12200000Y-12700000D01*
X10000000Y-12700000D01*
X10000000Y-10000000D01*
X10250777Y-13021484D02*
X10250777Y-12821484D01*
X10250777Y-12821484D02*
X10298396Y-12821484D01*
X10298396Y-12821484D02*
X10326967Y-12831008D01*
X10326967Y-12831008D02*
X10346015Y-12850055D01*
X10346015Y-12850055D02*
X10355539Y-12869103D01*
X10355539Y-12869103D02*
X10365063Y-12907198D01*
X10365063Y-12907198D02*
X10365063Y-12935769D01*
X10365063Y-12935769D02*
X10355539Y-12973865D01*
X10355539Y-12973865D02*
X10346015Y-12992912D01*
X10346015Y-12992912D02*
X10326967Y-13011960D01*
X10326967Y-13011960D02*
X10298396Y-13021484D01*
X10298396Y-13021484D02*
X10250777Y-13021484D01*
X10450777Y-13021484D02*
X10450777Y-12888150D01*
X10450777Y-12926246D02*
X10460301Y-12907198D01*
X10460301Y-12907198D02*
X10469824Y-12897674D01*
X10469824Y-12897674D02*
X10488872Y-12888150D01*
X10488872Y-12888150D02*
X10507920Y-12888150D01*
X10574586Y-13021484D02*
X10574586Y-12888150D01*
X10574586Y-12821484D02*
X10565063Y-12831008D01*
X10565063Y-12831008D02*
X10574586Y-12840531D01*
X10574586Y-12840531D02*
X10584110Y-12831008D01*
X10584110Y-12831008D02*
X10574586Y-12821484D01*
X10574586Y-12821484D02*
X10574586Y-12840531D01*
X10698396Y-13021484D02*
X10679348Y-13011960D01*
X10679348Y-13011960D02*
X10669824Y-12992912D01*
X10669824Y-12992912D02*
X10669824Y-12821484D01*
X10803158Y-13021484D02*
X10784110Y-13011960D01*
X10784110Y-13011960D02*
X10774586Y-12992912D01*
X10774586Y-12992912D02*
X10774586Y-12821484D01*
X11031729Y-13021484D02*
X11031729Y-12821484D01*
X11031729Y-12821484D02*
X11098396Y-12964341D01*
X11098396Y-12964341D02*
X11165063Y-12821484D01*
X11165063Y-12821484D02*
X11165063Y-13021484D01*
X11346015Y-13021484D02*
X11346015Y-12916722D01*
X11346015Y-12916722D02*
X11336491Y-12897674D01*
X11336491Y-12897674D02*
X11317443Y-12888150D01*
X11317443Y-12888150D02*
X11279348Y-12888150D01*
X11279348Y-12888150D02*
X11260301Y-12897674D01*
X11346015Y-13011960D02*
X11326967Y-13021484D01*
X11326967Y-13021484D02*
X11279348Y-13021484D01*
X11279348Y-13021484D02*
X11260301Y-13011960D01*
X11260301Y-13011960D02*
X11250777Y-12992912D01*
X11250777Y-12992912D02*
X11250777Y-12973865D01*
X11250777Y-12973865D02*
X11260301Y-12954817D01*
X11260301Y-12954817D02*
X11279348Y-12945293D01*
X11279348Y-12945293D02*
X11326967Y-12945293D01*
X11326967Y-12945293D02*
X11346015Y-12935769D01*
X11441253Y-12888150D02*
X11441253Y-13088150D01*
X11441253Y-12897674D02*
X11460301Y-12888150D01*
X11460301Y-12888150D02*
X11498396Y-12888150D01*
X11498396Y-12888150D02*
X11517443Y-12897674D01*
X11517443Y-12897674D02*
X11526967Y-12907198D01*
X11526967Y-12907198D02*
X11536491Y-12926246D01*
X11536491Y-12926246D02*
X11536491Y-12983388D01*
X11536491Y-12983388D02*
X11526967Y-13002436D01*
X11526967Y-13002436D02*
X11517443Y-13011960D01*
X11517443Y-13011960D02*
X11498396Y-13021484D01*
X11498396Y-13021484D02*
X11460301Y-13021484D01*
X11460301Y-13021484D02*
X11441253Y-13011960D01*
X11622205Y-13002436D02*
X11631729Y-13011960D01*
X11631729Y-13011960D02*
X11622205Y-13021484D01*
X11622205Y-13021484D02*
X11612682Y-13011960D01*
X11612682Y-13011960D02*
X11622205Y-13002436D01*
X11622205Y-13002436D02*
X11622205Y-13021484D01*
X11622205Y-12897674D02*
X11631729Y-12907198D01*
X11631729Y-12907198D02*
X11622205Y-12916722D01*
X11622205Y-12916722D02*
X11612682Y-12907198D01*
X11612682Y-12907198D02*
X11622205Y-12897674D01*
X11622205Y-12897674D02*
X11622205Y-12916722D01*
M02*
