G04 #@! TF.GenerationSoftware,KiCad,Pcbnew,7.0.10-7.0.10~ubuntu22.04.1*
G04 #@! TF.CreationDate,2024-01-16T23:48:01+08:00*
G04 #@! TF.ProjectId,EL_oscillator,454c5f6f-7363-4696-9c6c-61746f722e6b,rev?*
G04 #@! TF.SameCoordinates,Original*
G04 #@! TF.FileFunction,Legend,Bot*
G04 #@! TF.FilePolarity,Positive*
%FSLAX46Y46*%
G04 Gerber Fmt 4.6, Leading zero omitted, Abs format (unit mm)*
G04 Created by KiCad (PCBNEW 7.0.10-7.0.10~ubuntu22.04.1) date 2024-01-16 23:48:01*
%MOMM*%
%LPD*%
G01*
G04 APERTURE LIST*
G04 Aperture macros list*
%AMFreePoly0*
4,1,19,0.500000,-0.750000,0.000000,-0.750000,0.000000,-0.744911,-0.071157,-0.744911,-0.207708,-0.704816,-0.327430,-0.627875,-0.420627,-0.520320,-0.479746,-0.390866,-0.500000,-0.250000,-0.500000,0.250000,-0.479746,0.390866,-0.420627,0.520320,-0.327430,0.627875,-0.207708,0.704816,-0.071157,0.744911,0.000000,0.744911,0.000000,0.750000,0.500000,0.750000,0.500000,-0.750000,0.500000,-0.750000,
$1*%
%AMFreePoly1*
4,1,19,0.000000,0.744911,0.071157,0.744911,0.207708,0.704816,0.327430,0.627875,0.420627,0.520320,0.479746,0.390866,0.500000,0.250000,0.500000,-0.250000,0.479746,-0.390866,0.420627,-0.520320,0.327430,-0.627875,0.207708,-0.704816,0.071157,-0.744911,0.000000,-0.744911,0.000000,-0.750000,-0.500000,-0.750000,-0.500000,0.750000,0.000000,0.750000,0.000000,0.744911,0.000000,0.744911,
$1*%
G04 Aperture macros list end*
%ADD10C,0.200000*%
%ADD11C,0.150000*%
%ADD12C,0.300000*%
%ADD13C,0.120000*%
%ADD14R,1.700000X1.700000*%
%ADD15O,1.700000X1.700000*%
%ADD16R,1.600000X1.600000*%
%ADD17C,1.600000*%
%ADD18R,3.000000X3.000000*%
%ADD19C,3.000000*%
%ADD20FreePoly0,0.000000*%
%ADD21FreePoly1,0.000000*%
%ADD22FreePoly0,180.000000*%
%ADD23FreePoly1,180.000000*%
G04 APERTURE END LIST*
D10*
X118889850Y-100757028D02*
X118832707Y-100699885D01*
X118832707Y-100699885D02*
X118718422Y-100642742D01*
X118718422Y-100642742D02*
X118432707Y-100642742D01*
X118432707Y-100642742D02*
X118318422Y-100699885D01*
X118318422Y-100699885D02*
X118261279Y-100757028D01*
X118261279Y-100757028D02*
X118204136Y-100871314D01*
X118204136Y-100871314D02*
X118204136Y-100985600D01*
X118204136Y-100985600D02*
X118261279Y-101157028D01*
X118261279Y-101157028D02*
X118946993Y-101842742D01*
X118946993Y-101842742D02*
X118204136Y-101842742D01*
D11*
X110119819Y-121413221D02*
X109119819Y-121413221D01*
X110119819Y-121889411D02*
X109119819Y-121889411D01*
X109119819Y-121889411D02*
X110119819Y-122460839D01*
X110119819Y-122460839D02*
X109119819Y-122460839D01*
X110119819Y-123460839D02*
X110119819Y-122889411D01*
X110119819Y-123175125D02*
X109119819Y-123175125D01*
X109119819Y-123175125D02*
X109262676Y-123079887D01*
X109262676Y-123079887D02*
X109357914Y-122984649D01*
X109357914Y-122984649D02*
X109405533Y-122889411D01*
D12*
X118945489Y-109800828D02*
X118945489Y-108300828D01*
X118945489Y-108300828D02*
X118445489Y-109372257D01*
X118445489Y-109372257D02*
X117945489Y-108300828D01*
X117945489Y-108300828D02*
X117945489Y-109800828D01*
X116945488Y-108300828D02*
X116659774Y-108300828D01*
X116659774Y-108300828D02*
X116516917Y-108372257D01*
X116516917Y-108372257D02*
X116374060Y-108515114D01*
X116374060Y-108515114D02*
X116302631Y-108800828D01*
X116302631Y-108800828D02*
X116302631Y-109300828D01*
X116302631Y-109300828D02*
X116374060Y-109586542D01*
X116374060Y-109586542D02*
X116516917Y-109729400D01*
X116516917Y-109729400D02*
X116659774Y-109800828D01*
X116659774Y-109800828D02*
X116945488Y-109800828D01*
X116945488Y-109800828D02*
X117088346Y-109729400D01*
X117088346Y-109729400D02*
X117231203Y-109586542D01*
X117231203Y-109586542D02*
X117302631Y-109300828D01*
X117302631Y-109300828D02*
X117302631Y-108800828D01*
X117302631Y-108800828D02*
X117231203Y-108515114D01*
X117231203Y-108515114D02*
X117088346Y-108372257D01*
X117088346Y-108372257D02*
X116945488Y-108300828D01*
X115731202Y-109729400D02*
X115516917Y-109800828D01*
X115516917Y-109800828D02*
X115159774Y-109800828D01*
X115159774Y-109800828D02*
X115016917Y-109729400D01*
X115016917Y-109729400D02*
X114945488Y-109657971D01*
X114945488Y-109657971D02*
X114874059Y-109515114D01*
X114874059Y-109515114D02*
X114874059Y-109372257D01*
X114874059Y-109372257D02*
X114945488Y-109229400D01*
X114945488Y-109229400D02*
X115016917Y-109157971D01*
X115016917Y-109157971D02*
X115159774Y-109086542D01*
X115159774Y-109086542D02*
X115445488Y-109015114D01*
X115445488Y-109015114D02*
X115588345Y-108943685D01*
X115588345Y-108943685D02*
X115659774Y-108872257D01*
X115659774Y-108872257D02*
X115731202Y-108729400D01*
X115731202Y-108729400D02*
X115731202Y-108586542D01*
X115731202Y-108586542D02*
X115659774Y-108443685D01*
X115659774Y-108443685D02*
X115588345Y-108372257D01*
X115588345Y-108372257D02*
X115445488Y-108300828D01*
X115445488Y-108300828D02*
X115088345Y-108300828D01*
X115088345Y-108300828D02*
X114874059Y-108372257D01*
X114231203Y-109229400D02*
X113088346Y-109229400D01*
X112374060Y-109800828D02*
X112374060Y-108300828D01*
X112374060Y-109015114D02*
X111516917Y-109015114D01*
X111516917Y-109800828D02*
X111516917Y-108300828D01*
X110802631Y-109229400D02*
X109659774Y-109229400D01*
X108445488Y-109015114D02*
X108231202Y-109086542D01*
X108231202Y-109086542D02*
X108159773Y-109157971D01*
X108159773Y-109157971D02*
X108088345Y-109300828D01*
X108088345Y-109300828D02*
X108088345Y-109515114D01*
X108088345Y-109515114D02*
X108159773Y-109657971D01*
X108159773Y-109657971D02*
X108231202Y-109729400D01*
X108231202Y-109729400D02*
X108374059Y-109800828D01*
X108374059Y-109800828D02*
X108945488Y-109800828D01*
X108945488Y-109800828D02*
X108945488Y-108300828D01*
X108945488Y-108300828D02*
X108445488Y-108300828D01*
X108445488Y-108300828D02*
X108302631Y-108372257D01*
X108302631Y-108372257D02*
X108231202Y-108443685D01*
X108231202Y-108443685D02*
X108159773Y-108586542D01*
X108159773Y-108586542D02*
X108159773Y-108729400D01*
X108159773Y-108729400D02*
X108231202Y-108872257D01*
X108231202Y-108872257D02*
X108302631Y-108943685D01*
X108302631Y-108943685D02*
X108445488Y-109015114D01*
X108445488Y-109015114D02*
X108945488Y-109015114D01*
X107445488Y-109800828D02*
X107445488Y-108800828D01*
X107445488Y-109086542D02*
X107374059Y-108943685D01*
X107374059Y-108943685D02*
X107302631Y-108872257D01*
X107302631Y-108872257D02*
X107159773Y-108800828D01*
X107159773Y-108800828D02*
X107016916Y-108800828D01*
X106516917Y-109800828D02*
X106516917Y-108800828D01*
X106516917Y-108300828D02*
X106588345Y-108372257D01*
X106588345Y-108372257D02*
X106516917Y-108443685D01*
X106516917Y-108443685D02*
X106445488Y-108372257D01*
X106445488Y-108372257D02*
X106516917Y-108300828D01*
X106516917Y-108300828D02*
X106516917Y-108443685D01*
X105159774Y-109800828D02*
X105159774Y-108300828D01*
X105159774Y-109729400D02*
X105302631Y-109800828D01*
X105302631Y-109800828D02*
X105588345Y-109800828D01*
X105588345Y-109800828D02*
X105731202Y-109729400D01*
X105731202Y-109729400D02*
X105802631Y-109657971D01*
X105802631Y-109657971D02*
X105874059Y-109515114D01*
X105874059Y-109515114D02*
X105874059Y-109086542D01*
X105874059Y-109086542D02*
X105802631Y-108943685D01*
X105802631Y-108943685D02*
X105731202Y-108872257D01*
X105731202Y-108872257D02*
X105588345Y-108800828D01*
X105588345Y-108800828D02*
X105302631Y-108800828D01*
X105302631Y-108800828D02*
X105159774Y-108872257D01*
X103802631Y-108800828D02*
X103802631Y-110015114D01*
X103802631Y-110015114D02*
X103874059Y-110157971D01*
X103874059Y-110157971D02*
X103945488Y-110229400D01*
X103945488Y-110229400D02*
X104088345Y-110300828D01*
X104088345Y-110300828D02*
X104302631Y-110300828D01*
X104302631Y-110300828D02*
X104445488Y-110229400D01*
X103802631Y-109729400D02*
X103945488Y-109800828D01*
X103945488Y-109800828D02*
X104231202Y-109800828D01*
X104231202Y-109800828D02*
X104374059Y-109729400D01*
X104374059Y-109729400D02*
X104445488Y-109657971D01*
X104445488Y-109657971D02*
X104516916Y-109515114D01*
X104516916Y-109515114D02*
X104516916Y-109086542D01*
X104516916Y-109086542D02*
X104445488Y-108943685D01*
X104445488Y-108943685D02*
X104374059Y-108872257D01*
X104374059Y-108872257D02*
X104231202Y-108800828D01*
X104231202Y-108800828D02*
X103945488Y-108800828D01*
X103945488Y-108800828D02*
X103802631Y-108872257D01*
X102516916Y-109729400D02*
X102659773Y-109800828D01*
X102659773Y-109800828D02*
X102945488Y-109800828D01*
X102945488Y-109800828D02*
X103088345Y-109729400D01*
X103088345Y-109729400D02*
X103159773Y-109586542D01*
X103159773Y-109586542D02*
X103159773Y-109015114D01*
X103159773Y-109015114D02*
X103088345Y-108872257D01*
X103088345Y-108872257D02*
X102945488Y-108800828D01*
X102945488Y-108800828D02*
X102659773Y-108800828D01*
X102659773Y-108800828D02*
X102516916Y-108872257D01*
X102516916Y-108872257D02*
X102445488Y-109015114D01*
X102445488Y-109015114D02*
X102445488Y-109157971D01*
X102445488Y-109157971D02*
X103159773Y-109300828D01*
D11*
X112869819Y-121413221D02*
X111869819Y-121413221D01*
X112869819Y-121889411D02*
X111869819Y-121889411D01*
X111869819Y-121889411D02*
X112869819Y-122460839D01*
X112869819Y-122460839D02*
X111869819Y-122460839D01*
X111965057Y-122889411D02*
X111917438Y-122937030D01*
X111917438Y-122937030D02*
X111869819Y-123032268D01*
X111869819Y-123032268D02*
X111869819Y-123270363D01*
X111869819Y-123270363D02*
X111917438Y-123365601D01*
X111917438Y-123365601D02*
X111965057Y-123413220D01*
X111965057Y-123413220D02*
X112060295Y-123460839D01*
X112060295Y-123460839D02*
X112155533Y-123460839D01*
X112155533Y-123460839D02*
X112298390Y-123413220D01*
X112298390Y-123413220D02*
X112869819Y-122841792D01*
X112869819Y-122841792D02*
X112869819Y-123460839D01*
X114369819Y-120270363D02*
X114369819Y-120460839D01*
X114369819Y-120460839D02*
X114417438Y-120556077D01*
X114417438Y-120556077D02*
X114512676Y-120651315D01*
X114512676Y-120651315D02*
X114703152Y-120698934D01*
X114703152Y-120698934D02*
X115036485Y-120698934D01*
X115036485Y-120698934D02*
X115226961Y-120651315D01*
X115226961Y-120651315D02*
X115322200Y-120556077D01*
X115322200Y-120556077D02*
X115369819Y-120460839D01*
X115369819Y-120460839D02*
X115369819Y-120270363D01*
X115369819Y-120270363D02*
X115322200Y-120175125D01*
X115322200Y-120175125D02*
X115226961Y-120079887D01*
X115226961Y-120079887D02*
X115036485Y-120032268D01*
X115036485Y-120032268D02*
X114703152Y-120032268D01*
X114703152Y-120032268D02*
X114512676Y-120079887D01*
X114512676Y-120079887D02*
X114417438Y-120175125D01*
X114417438Y-120175125D02*
X114369819Y-120270363D01*
X114369819Y-121127506D02*
X115179342Y-121127506D01*
X115179342Y-121127506D02*
X115274580Y-121175125D01*
X115274580Y-121175125D02*
X115322200Y-121222744D01*
X115322200Y-121222744D02*
X115369819Y-121317982D01*
X115369819Y-121317982D02*
X115369819Y-121508458D01*
X115369819Y-121508458D02*
X115322200Y-121603696D01*
X115322200Y-121603696D02*
X115274580Y-121651315D01*
X115274580Y-121651315D02*
X115179342Y-121698934D01*
X115179342Y-121698934D02*
X114369819Y-121698934D01*
X114369819Y-122032268D02*
X114369819Y-122603696D01*
X115369819Y-122317982D02*
X114369819Y-122317982D01*
X115369819Y-123460839D02*
X115369819Y-122889411D01*
X115369819Y-123175125D02*
X114369819Y-123175125D01*
X114369819Y-123175125D02*
X114512676Y-123079887D01*
X114512676Y-123079887D02*
X114607914Y-122984649D01*
X114607914Y-122984649D02*
X114655533Y-122889411D01*
D10*
X113204136Y-101842742D02*
X113889850Y-101842742D01*
X113546993Y-101842742D02*
X113546993Y-100642742D01*
X113546993Y-100642742D02*
X113661279Y-100814171D01*
X113661279Y-100814171D02*
X113775564Y-100928457D01*
X113775564Y-100928457D02*
X113889850Y-100985600D01*
D11*
X106619819Y-121746554D02*
X107619819Y-122079887D01*
X107619819Y-122079887D02*
X106619819Y-122413220D01*
X107619819Y-122746554D02*
X106619819Y-122746554D01*
X106619819Y-122746554D02*
X107334104Y-123079887D01*
X107334104Y-123079887D02*
X106619819Y-123413220D01*
X106619819Y-123413220D02*
X107619819Y-123413220D01*
X116869819Y-120270363D02*
X116869819Y-120460839D01*
X116869819Y-120460839D02*
X116917438Y-120556077D01*
X116917438Y-120556077D02*
X117012676Y-120651315D01*
X117012676Y-120651315D02*
X117203152Y-120698934D01*
X117203152Y-120698934D02*
X117536485Y-120698934D01*
X117536485Y-120698934D02*
X117726961Y-120651315D01*
X117726961Y-120651315D02*
X117822200Y-120556077D01*
X117822200Y-120556077D02*
X117869819Y-120460839D01*
X117869819Y-120460839D02*
X117869819Y-120270363D01*
X117869819Y-120270363D02*
X117822200Y-120175125D01*
X117822200Y-120175125D02*
X117726961Y-120079887D01*
X117726961Y-120079887D02*
X117536485Y-120032268D01*
X117536485Y-120032268D02*
X117203152Y-120032268D01*
X117203152Y-120032268D02*
X117012676Y-120079887D01*
X117012676Y-120079887D02*
X116917438Y-120175125D01*
X116917438Y-120175125D02*
X116869819Y-120270363D01*
X116869819Y-121127506D02*
X117679342Y-121127506D01*
X117679342Y-121127506D02*
X117774580Y-121175125D01*
X117774580Y-121175125D02*
X117822200Y-121222744D01*
X117822200Y-121222744D02*
X117869819Y-121317982D01*
X117869819Y-121317982D02*
X117869819Y-121508458D01*
X117869819Y-121508458D02*
X117822200Y-121603696D01*
X117822200Y-121603696D02*
X117774580Y-121651315D01*
X117774580Y-121651315D02*
X117679342Y-121698934D01*
X117679342Y-121698934D02*
X116869819Y-121698934D01*
X116869819Y-122032268D02*
X116869819Y-122603696D01*
X117869819Y-122317982D02*
X116869819Y-122317982D01*
X116965057Y-122889411D02*
X116917438Y-122937030D01*
X116917438Y-122937030D02*
X116869819Y-123032268D01*
X116869819Y-123032268D02*
X116869819Y-123270363D01*
X116869819Y-123270363D02*
X116917438Y-123365601D01*
X116917438Y-123365601D02*
X116965057Y-123413220D01*
X116965057Y-123413220D02*
X117060295Y-123460839D01*
X117060295Y-123460839D02*
X117155533Y-123460839D01*
X117155533Y-123460839D02*
X117298390Y-123413220D01*
X117298390Y-123413220D02*
X117869819Y-122841792D01*
X117869819Y-122841792D02*
X117869819Y-123460839D01*
X104167438Y-121365601D02*
X104119819Y-121270363D01*
X104119819Y-121270363D02*
X104119819Y-121127506D01*
X104119819Y-121127506D02*
X104167438Y-120984649D01*
X104167438Y-120984649D02*
X104262676Y-120889411D01*
X104262676Y-120889411D02*
X104357914Y-120841792D01*
X104357914Y-120841792D02*
X104548390Y-120794173D01*
X104548390Y-120794173D02*
X104691247Y-120794173D01*
X104691247Y-120794173D02*
X104881723Y-120841792D01*
X104881723Y-120841792D02*
X104976961Y-120889411D01*
X104976961Y-120889411D02*
X105072200Y-120984649D01*
X105072200Y-120984649D02*
X105119819Y-121127506D01*
X105119819Y-121127506D02*
X105119819Y-121222744D01*
X105119819Y-121222744D02*
X105072200Y-121365601D01*
X105072200Y-121365601D02*
X105024580Y-121413220D01*
X105024580Y-121413220D02*
X104691247Y-121413220D01*
X104691247Y-121413220D02*
X104691247Y-121222744D01*
X105119819Y-121841792D02*
X104119819Y-121841792D01*
X104119819Y-121841792D02*
X105119819Y-122413220D01*
X105119819Y-122413220D02*
X104119819Y-122413220D01*
X105119819Y-122889411D02*
X104119819Y-122889411D01*
X104119819Y-122889411D02*
X104119819Y-123127506D01*
X104119819Y-123127506D02*
X104167438Y-123270363D01*
X104167438Y-123270363D02*
X104262676Y-123365601D01*
X104262676Y-123365601D02*
X104357914Y-123413220D01*
X104357914Y-123413220D02*
X104548390Y-123460839D01*
X104548390Y-123460839D02*
X104691247Y-123460839D01*
X104691247Y-123460839D02*
X104881723Y-123413220D01*
X104881723Y-123413220D02*
X104976961Y-123365601D01*
X104976961Y-123365601D02*
X105072200Y-123270363D01*
X105072200Y-123270363D02*
X105119819Y-123127506D01*
X105119819Y-123127506D02*
X105119819Y-122889411D01*
X105583333Y-112454819D02*
X105583333Y-113169104D01*
X105583333Y-113169104D02*
X105630952Y-113311961D01*
X105630952Y-113311961D02*
X105726190Y-113407200D01*
X105726190Y-113407200D02*
X105869047Y-113454819D01*
X105869047Y-113454819D02*
X105964285Y-113454819D01*
X105107142Y-113454819D02*
X105107142Y-112454819D01*
X105107142Y-112454819D02*
X104726190Y-112454819D01*
X104726190Y-112454819D02*
X104630952Y-112502438D01*
X104630952Y-112502438D02*
X104583333Y-112550057D01*
X104583333Y-112550057D02*
X104535714Y-112645295D01*
X104535714Y-112645295D02*
X104535714Y-112788152D01*
X104535714Y-112788152D02*
X104583333Y-112883390D01*
X104583333Y-112883390D02*
X104630952Y-112931009D01*
X104630952Y-112931009D02*
X104726190Y-112978628D01*
X104726190Y-112978628D02*
X105107142Y-112978628D01*
X103583333Y-113454819D02*
X104154761Y-113454819D01*
X103869047Y-113454819D02*
X103869047Y-112454819D01*
X103869047Y-112454819D02*
X103964285Y-112597676D01*
X103964285Y-112597676D02*
X104059523Y-112692914D01*
X104059523Y-112692914D02*
X104154761Y-112740533D01*
X118333333Y-113154819D02*
X118333333Y-113869104D01*
X118333333Y-113869104D02*
X118380952Y-114011961D01*
X118380952Y-114011961D02*
X118476190Y-114107200D01*
X118476190Y-114107200D02*
X118619047Y-114154819D01*
X118619047Y-114154819D02*
X118714285Y-114154819D01*
X117857142Y-114154819D02*
X117857142Y-113154819D01*
X117857142Y-113154819D02*
X117476190Y-113154819D01*
X117476190Y-113154819D02*
X117380952Y-113202438D01*
X117380952Y-113202438D02*
X117333333Y-113250057D01*
X117333333Y-113250057D02*
X117285714Y-113345295D01*
X117285714Y-113345295D02*
X117285714Y-113488152D01*
X117285714Y-113488152D02*
X117333333Y-113583390D01*
X117333333Y-113583390D02*
X117380952Y-113631009D01*
X117380952Y-113631009D02*
X117476190Y-113678628D01*
X117476190Y-113678628D02*
X117857142Y-113678628D01*
X116904761Y-113250057D02*
X116857142Y-113202438D01*
X116857142Y-113202438D02*
X116761904Y-113154819D01*
X116761904Y-113154819D02*
X116523809Y-113154819D01*
X116523809Y-113154819D02*
X116428571Y-113202438D01*
X116428571Y-113202438D02*
X116380952Y-113250057D01*
X116380952Y-113250057D02*
X116333333Y-113345295D01*
X116333333Y-113345295D02*
X116333333Y-113440533D01*
X116333333Y-113440533D02*
X116380952Y-113583390D01*
X116380952Y-113583390D02*
X116952380Y-114154819D01*
X116952380Y-114154819D02*
X116333333Y-114154819D01*
G36*
X112964912Y-114094132D02*
G01*
X113073341Y-114180164D01*
X113302772Y-114366006D01*
X113617189Y-114622722D01*
X113991885Y-114929960D01*
X114402153Y-115267372D01*
X114823287Y-115614606D01*
X115230578Y-115951314D01*
X115599321Y-116257145D01*
X115904809Y-116511748D01*
X116122334Y-116694775D01*
X116252658Y-116807671D01*
X116495357Y-117031022D01*
X116668946Y-117209026D01*
X116742375Y-117310834D01*
X116742553Y-117333593D01*
X116685976Y-117377111D01*
X116529642Y-117404682D01*
X116250413Y-117419143D01*
X115825153Y-117423333D01*
X115488149Y-117427808D01*
X115180032Y-117441995D01*
X114976044Y-117463584D01*
X114908778Y-117490197D01*
X114931660Y-117532421D01*
X115030185Y-117701647D01*
X115191363Y-117973235D01*
X115399691Y-118321114D01*
X115639663Y-118719213D01*
X115792974Y-118976913D01*
X116003953Y-119347466D01*
X116166402Y-119653105D01*
X116266601Y-119867590D01*
X116290833Y-119964682D01*
X116274353Y-119988339D01*
X116194313Y-120048000D01*
X116151147Y-120021080D01*
X115993087Y-119898437D01*
X115737246Y-119690098D01*
X115401236Y-119410896D01*
X115002668Y-119075666D01*
X114559153Y-118699242D01*
X114088303Y-118296459D01*
X113607729Y-117882150D01*
X113135044Y-117471150D01*
X113124520Y-117461947D01*
X112776397Y-117146286D01*
X112509818Y-116882133D01*
X112341802Y-116687422D01*
X112289370Y-116580086D01*
X112296821Y-116557189D01*
X112361748Y-116502457D01*
X112512153Y-116465499D01*
X112775976Y-116441474D01*
X113181160Y-116425538D01*
X113445498Y-116416300D01*
X113756610Y-116399547D01*
X113969250Y-116380617D01*
X114048000Y-116362101D01*
X114037458Y-116338294D01*
X113956421Y-116195722D01*
X113808459Y-115948503D01*
X113609197Y-115622574D01*
X113374262Y-115243869D01*
X113317115Y-115151815D01*
X113069575Y-114737301D01*
X112891243Y-114410166D01*
X112791071Y-114187767D01*
X112778007Y-114087460D01*
X112825191Y-114059010D01*
X112964912Y-114094132D01*
G37*
G36*
X110262607Y-116447574D02*
G01*
X110553348Y-116618282D01*
X110755126Y-116802888D01*
X110830667Y-116972425D01*
X110829442Y-116984559D01*
X110760999Y-117043115D01*
X110570919Y-117075014D01*
X110235826Y-117084667D01*
X109640985Y-117084667D01*
X109770160Y-117334462D01*
X109875406Y-117624868D01*
X109873101Y-117959159D01*
X109722691Y-118235447D01*
X109675543Y-118293531D01*
X109562816Y-118549909D01*
X109499265Y-118939404D01*
X109494482Y-118989392D01*
X109445624Y-119290264D01*
X109369094Y-119432781D01*
X109253866Y-119426075D01*
X109088916Y-119279277D01*
X108929587Y-119103220D01*
X108616415Y-119469777D01*
X108303243Y-119836333D01*
X108046806Y-119591348D01*
X107790368Y-119346364D01*
X107487238Y-119612515D01*
X107387960Y-119696965D01*
X107217712Y-119827613D01*
X107123554Y-119879430D01*
X107106519Y-119874003D01*
X106998054Y-119784255D01*
X106848256Y-119618986D01*
X106633511Y-119357779D01*
X106357591Y-119512390D01*
X106183135Y-119600859D01*
X106075720Y-119613379D01*
X106006632Y-119540000D01*
X105889315Y-119352008D01*
X105757397Y-119202810D01*
X105620806Y-119159426D01*
X105434309Y-119194554D01*
X105409456Y-119201402D01*
X105219534Y-119231297D01*
X105119607Y-119207708D01*
X105115183Y-119191494D01*
X105134883Y-119042625D01*
X105202950Y-118781299D01*
X105307558Y-118442713D01*
X105436879Y-118062061D01*
X105579087Y-117674540D01*
X105722354Y-117315345D01*
X105854855Y-117019672D01*
X106033170Y-116709941D01*
X106216716Y-116449667D01*
X108417667Y-116449667D01*
X108419428Y-116513363D01*
X108467834Y-116670871D01*
X108608546Y-116730771D01*
X108731827Y-116724469D01*
X108854853Y-116613430D01*
X108864881Y-116437498D01*
X108761676Y-116267234D01*
X108577773Y-116195667D01*
X108546323Y-116197278D01*
X108445700Y-116261909D01*
X108417667Y-116449667D01*
X106216716Y-116449667D01*
X106295200Y-116338374D01*
X106567446Y-116017136D01*
X107020841Y-115545263D01*
X106851421Y-115329880D01*
X106743354Y-115154881D01*
X106672495Y-114869931D01*
X106711132Y-114607508D01*
X106838217Y-114396962D01*
X107032703Y-114267643D01*
X107273542Y-114248904D01*
X107539688Y-114370094D01*
X107724982Y-114485043D01*
X107941408Y-114540017D01*
X108079000Y-114460000D01*
X108082035Y-114455675D01*
X108203323Y-114398787D01*
X108409542Y-114375333D01*
X108597157Y-114401282D01*
X108846423Y-114560947D01*
X109006025Y-114862167D01*
X109099731Y-115005908D01*
X109300955Y-115052667D01*
X109454008Y-115072908D01*
X109714305Y-115196138D01*
X109908041Y-115394422D01*
X109984000Y-115624855D01*
X109938463Y-115821842D01*
X109809151Y-116032205D01*
X109634302Y-116218323D01*
X110036885Y-116355497D01*
X110237906Y-116437498D01*
X110262607Y-116447574D01*
G37*
D13*
X103350000Y-114450000D02*
X103350000Y-115050000D01*
X104050000Y-115750000D02*
X105450000Y-115750000D01*
X105450000Y-113750000D02*
X104050000Y-113750000D01*
X106150000Y-115050000D02*
X106150000Y-114450000D01*
X104050000Y-113750000D02*
G75*
G03*
X103350000Y-114450000I-1J-699999D01*
G01*
X103350000Y-115050000D02*
G75*
G03*
X104050000Y-115750000I699999J-1D01*
G01*
X106150000Y-114450000D02*
G75*
G03*
X105450000Y-113750000I-700000J0D01*
G01*
X105450000Y-115750000D02*
G75*
G03*
X106150000Y-115050000I0J700000D01*
G01*
X118900000Y-115800000D02*
X118900000Y-115200000D01*
X118200000Y-114500000D02*
X116800000Y-114500000D01*
X116800000Y-116500000D02*
X118200000Y-116500000D01*
X116100000Y-115200000D02*
X116100000Y-115800000D01*
X118200000Y-116500000D02*
G75*
G03*
X118900000Y-115800000I1J699999D01*
G01*
X118900000Y-115200000D02*
G75*
G03*
X118200000Y-114500000I-699999J1D01*
G01*
X116100000Y-115800000D02*
G75*
G03*
X116800000Y-116500000I700000J0D01*
G01*
X116800000Y-114500000D02*
G75*
G03*
X116100000Y-115200000I0J-700000D01*
G01*
%LPC*%
D14*
X104650000Y-125300000D03*
D15*
X107190000Y-125300000D03*
X109730000Y-125300000D03*
X112270000Y-125300000D03*
X114810000Y-125300000D03*
X117350000Y-125300000D03*
D16*
X112000000Y-112000000D03*
D17*
X110000000Y-112000000D03*
D18*
X103380000Y-104300000D03*
D19*
X108460000Y-104300000D03*
X113540000Y-104300000D03*
X118620000Y-104300000D03*
D20*
X104100000Y-114750000D03*
D21*
X105400000Y-114750000D03*
D22*
X118150000Y-115500000D03*
D23*
X116850000Y-115500000D03*
%LPD*%
M02*
